<svg width="207" height="63" viewBox="0 0 207 63" fill="none" xmlns="http://www.w3.org/2000/svg">
<path d="M46.74 49.828C46.698 50.08 46.67 50.458 46.656 50.794C46.614 51.62 46.544 53.762 46.544 55.218C46.544 56.674 46.614 58.858 46.614 59.74C46.614 61.028 46.138 61.448 45.368 61.448C44.276 61.448 42.456 60.384 42.456 59.124C42.456 57.892 44.122 56.59 45.858 55.932C47.104 55.442 48.504 55.19 49.61 55.19C51.668 55.19 53.138 56.296 53.138 57.976C53.138 59.67 52.074 60.748 50.142 61.196C49.526 61.336 48.896 61.364 48.406 61.392L48.014 60.272C48.546 60.272 49.134 60.286 49.666 60.174C50.884 59.936 52.004 59.278 52.004 57.976C52.004 56.786 50.926 56.156 49.61 56.156C48.35 56.156 47.202 56.422 46.012 56.898C44.64 57.43 43.562 58.368 43.562 59.082C43.562 59.712 44.542 60.272 45.088 60.272C45.41 60.272 45.592 60.048 45.592 59.586C45.592 58.774 45.522 56.828 45.522 55.274C45.522 53.664 45.578 51.382 45.578 50.808C45.578 50.542 45.55 50.052 45.508 49.828H46.74ZM51.094 51.382C52.088 51.9 53.614 52.852 54.286 53.412L53.726 54.308C53.04 53.664 51.472 52.698 50.576 52.222L51.094 51.382ZM42.694 52.334C43.464 52.432 43.968 52.446 44.472 52.446C45.858 52.446 48.084 52.152 49.47 51.732L49.498 52.824C48.056 53.174 45.76 53.482 44.5 53.482C43.716 53.482 43.184 53.454 42.722 53.412L42.694 52.334ZM60.474 56.044H65.262V60.146H60.474V59.264H64.282V56.926H60.474V56.044ZM60.012 56.044H60.992V60.986H60.012V56.044ZM57.478 51.872H61.37V52.656H57.478V51.872ZM63.932 51.872H67.894V52.656H63.932V51.872ZM67.432 49.842H68.482V60.72C68.482 61.42 68.314 61.756 67.866 61.938C67.39 62.106 66.578 62.12 65.346 62.12C65.304 61.826 65.122 61.336 64.968 61.042C65.892 61.084 66.816 61.07 67.082 61.056C67.348 61.056 67.432 60.972 67.432 60.706V49.842ZM57.562 49.842H62.042V54.784H57.562V53.93H61.048V50.696H57.562V49.842ZM67.978 49.842V50.682H64.31V53.944H67.978V54.784H63.302V49.842H67.978ZM56.974 49.842H58.01V62.134H56.974V49.842ZM73.522 51.242C73.452 51.564 73.41 52.236 73.396 52.6C73.382 53.468 73.396 54.756 73.494 55.904C73.732 58.242 74.404 59.796 75.412 59.796C76.126 59.796 76.784 58.354 77.148 56.954L78.03 57.948C77.176 60.314 76.336 61.126 75.384 61.126C74.054 61.126 72.794 59.81 72.402 56.184C72.276 54.98 72.248 53.272 72.248 52.46C72.248 52.138 72.248 51.536 72.164 51.214L73.522 51.242ZM80.802 51.62C82.062 53.244 83.07 56.226 83.28 58.592L82.146 59.04C81.908 56.52 81.054 53.636 79.724 51.998L80.802 51.62ZM88.572 53.818H95.642V54.756H88.572V53.818ZM88.32 60.622H95.824V61.56H88.32V60.622ZM87.844 56.52H96.412V62.134H95.348V57.472H88.866V62.134H87.844V56.52ZM92.058 50.318C90.91 52.026 88.614 54.014 86.22 55.316C86.08 55.078 85.8 54.7 85.562 54.476C88.026 53.23 90.364 51.088 91.47 49.282H92.534C94.046 51.368 96.496 53.314 98.736 54.308C98.47 54.56 98.218 54.924 98.036 55.232C95.838 54.084 93.374 52.11 92.058 50.318ZM107.192 60.006C109.558 59.656 111.686 58.564 111.672 56.156C111.672 55.078 110.818 53.65 108.956 53.65C107.164 53.65 105.554 54.644 104.196 56.058V54.812C105.876 53.23 107.654 52.642 109.124 52.642C111.07 52.642 112.792 54 112.792 56.17C112.806 58.998 110.748 60.468 107.696 61.056L107.192 60.006ZM104.028 53.258C103.58 53.314 102.054 53.51 101.018 53.664L100.892 52.502C101.2 52.516 101.466 52.516 101.816 52.488C102.558 52.446 104.294 52.236 104.952 52.026L105.358 52.502C105.12 52.866 104.742 53.468 104.504 53.86L104.084 55.778C103.44 56.772 102.138 58.662 101.256 59.88L100.556 58.928C101.424 57.836 103.314 55.26 103.86 54.336L103.916 53.622L104.028 53.258ZM103.888 50.934C103.888 50.612 103.902 50.248 103.832 49.898L105.162 49.94C104.966 50.85 104.532 54.854 104.532 57.318C104.532 58.592 104.532 59.446 104.588 60.692C104.602 60.93 104.644 61.28 104.658 61.546H103.454C103.468 61.35 103.496 60.944 103.496 60.72C103.496 59.362 103.51 58.662 103.524 57.122C103.552 55.89 103.888 51.452 103.888 50.934ZM124.846 50.206C124.818 50.444 124.79 50.92 124.79 51.228C124.776 52.096 124.776 53.076 124.748 53.79C124.72 54.868 124.678 56.38 124.538 57.108C124.412 57.738 124.09 57.92 123.46 57.92C122.942 57.92 121.976 57.794 121.612 57.724L121.626 56.744C122.116 56.856 122.704 56.926 123.026 56.926C123.376 56.926 123.516 56.87 123.572 56.548C123.656 56.016 123.712 54.798 123.726 53.804C123.74 53.02 123.74 52.04 123.74 51.27C123.74 50.948 123.698 50.458 123.656 50.206H124.846ZM119.316 50.654C119.274 50.976 119.26 51.354 119.26 51.788C119.246 53.3 119.204 57.15 119.232 58.116C119.288 59.628 119.302 60.16 121.724 60.16C123.25 60.16 124.986 60.006 125.896 59.838L125.854 61.014C124.916 61.112 123.208 61.252 121.78 61.252C118.546 61.252 118.238 60.496 118.182 58.27C118.154 57.094 118.168 52.474 118.168 51.83C118.168 51.41 118.154 51.074 118.084 50.654H119.316ZM115.13 54C115.564 54 116.082 53.972 116.586 53.916C118.098 53.79 123.432 53.23 126.302 53.076C126.666 53.062 127.072 53.034 127.394 53.006V54.112C127.184 54.098 126.652 54.112 126.302 54.112C124.062 54.154 118.434 54.742 116.656 54.952C116.236 55.008 115.634 55.092 115.242 55.148L115.13 54Z" fill="#5D5D5D"/>
<path d="M57.72 32.48C55.56 32.48 53.5467 32.1333 51.68 31.44C49.84 30.72 48.24 29.7067 46.88 28.4C45.52 27.0933 44.4533 25.56 43.68 23.8C42.9333 22.04 42.56 20.1067 42.56 18C42.56 15.8933 42.9333 13.96 43.68 12.2C44.4533 10.44 45.52 8.90667 46.88 7.6C48.2667 6.29333 49.88 5.29333 51.72 4.6C53.56 3.88 55.5733 3.52 57.76 3.52C60.1867 3.52 62.3733 3.94667 64.32 4.8C66.2933 5.62667 67.9467 6.85333 69.28 8.48L65.12 12.32C64.16 11.2267 63.0933 10.4133 61.92 9.88C60.7467 9.32 59.4667 9.04 58.08 9.04C56.7733 9.04 55.5733 9.25333 54.48 9.68C53.3867 10.1067 52.44 10.72 51.64 11.52C50.84 12.32 50.2133 13.2667 49.76 14.36C49.3333 15.4533 49.12 16.6667 49.12 18C49.12 19.3333 49.3333 20.5467 49.76 21.64C50.2133 22.7333 50.84 23.68 51.64 24.48C52.44 25.28 53.3867 25.8933 54.48 26.32C55.5733 26.7467 56.7733 26.96 58.08 26.96C59.4667 26.96 60.7467 26.6933 61.92 26.16C63.0933 25.6 64.16 24.76 65.12 23.64L69.28 27.48C67.9467 29.1067 66.2933 30.3467 64.32 31.2C62.3733 32.0533 60.1733 32.48 57.72 32.48ZM82.7138 32.32C80.4204 32.32 78.3804 31.84 76.5938 30.88C74.8338 29.92 73.4338 28.6133 72.3938 26.96C71.3804 25.28 70.8738 23.3733 70.8738 21.24C70.8738 19.08 71.3804 17.1733 72.3938 15.52C73.4338 13.84 74.8338 12.5333 76.5938 11.6C78.3804 10.64 80.4204 10.16 82.7138 10.16C84.9804 10.16 87.0071 10.64 88.7938 11.6C90.5804 12.5333 91.9804 13.8267 92.9938 15.48C94.0071 17.1333 94.5138 19.0533 94.5138 21.24C94.5138 23.3733 94.0071 25.28 92.9938 26.96C91.9804 28.6133 90.5804 29.92 88.7938 30.88C87.0071 31.84 84.9804 32.32 82.7138 32.32ZM82.7138 27.2C83.7538 27.2 84.6871 26.96 85.5138 26.48C86.3404 26 86.9938 25.32 87.4738 24.44C87.9538 23.5333 88.1938 22.4667 88.1938 21.24C88.1938 19.9867 87.9538 18.92 87.4738 18.04C86.9938 17.16 86.3404 16.48 85.5138 16C84.6871 15.52 83.7538 15.28 82.7138 15.28C81.6738 15.28 80.7404 15.52 79.9138 16C79.0871 16.48 78.4204 17.16 77.9138 18.04C77.4338 18.92 77.1938 19.9867 77.1938 21.24C77.1938 22.4667 77.4338 23.5333 77.9138 24.44C78.4204 25.32 79.0871 26 79.9138 26.48C80.7404 26.96 81.6738 27.2 82.7138 27.2ZM111.765 10.16C113.471 10.16 114.991 10.5067 116.325 11.2C117.685 11.8667 118.751 12.9067 119.525 14.32C120.298 15.7067 120.685 17.4933 120.685 19.68V32H114.445V20.64C114.445 18.9067 114.058 17.6267 113.285 16.8C112.538 15.9733 111.471 15.56 110.085 15.56C109.098 15.56 108.205 15.7733 107.405 16.2C106.631 16.6 106.018 17.2267 105.565 18.08C105.138 18.9333 104.925 20.0267 104.925 21.36V32H98.6847V10.48H104.645V16.44L103.525 14.64C104.298 13.2 105.405 12.0933 106.845 11.32C108.285 10.5467 109.925 10.16 111.765 10.16ZM135.141 32.32C132.608 32.32 130.634 31.68 129.221 30.4C127.808 29.0933 127.101 27.16 127.101 24.6V5.72H133.341V24.52C133.341 25.4267 133.581 26.1333 134.061 26.64C134.541 27.12 135.194 27.36 136.021 27.36C137.008 27.36 137.848 27.0933 138.541 26.56L140.221 30.96C139.581 31.4133 138.808 31.76 137.901 32C137.021 32.2133 136.101 32.32 135.141 32.32ZM123.781 15.76V10.96H138.701V15.76H123.781ZM156.924 32V27.8L156.524 26.88V19.36C156.524 18.0267 156.11 16.9867 155.284 16.24C154.484 15.4933 153.244 15.12 151.564 15.12C150.417 15.12 149.284 15.3067 148.164 15.68C147.07 16.0267 146.137 16.5067 145.364 17.12L143.124 12.76C144.297 11.9333 145.71 11.2933 147.364 10.84C149.017 10.3867 150.697 10.16 152.404 10.16C155.684 10.16 158.23 10.9333 160.044 12.48C161.857 14.0267 162.764 16.44 162.764 19.72V32H156.924ZM150.364 32.32C148.684 32.32 147.244 32.04 146.044 31.48C144.844 30.8933 143.924 30.1067 143.284 29.12C142.644 28.1333 142.324 27.0267 142.324 25.8C142.324 24.52 142.63 23.4 143.244 22.44C143.884 21.48 144.884 20.7333 146.244 20.2C147.604 19.64 149.377 19.36 151.564 19.36H157.284V23H152.244C150.777 23 149.764 23.24 149.204 23.72C148.67 24.2 148.404 24.8 148.404 25.52C148.404 26.32 148.71 26.96 149.324 27.44C149.964 27.8933 150.83 28.12 151.924 28.12C152.964 28.12 153.897 27.88 154.724 27.4C155.55 26.8933 156.15 26.16 156.524 25.2L157.484 28.08C157.03 29.4667 156.204 30.52 155.004 31.24C153.804 31.96 152.257 32.32 150.364 32.32ZM178.968 32.32C176.648 32.32 174.581 31.8533 172.768 30.92C170.954 29.96 169.528 28.64 168.488 26.96C167.474 25.28 166.968 23.3733 166.968 21.24C166.968 19.08 167.474 17.1733 168.488 15.52C169.528 13.84 170.954 12.5333 172.768 11.6C174.581 10.64 176.648 10.16 178.968 10.16C181.234 10.16 183.208 10.64 184.888 11.6C186.568 12.5333 187.808 13.88 188.608 15.64L183.768 18.24C183.208 17.2267 182.501 16.48 181.648 16C180.821 15.52 179.914 15.28 178.928 15.28C177.861 15.28 176.901 15.52 176.048 16C175.194 16.48 174.514 17.16 174.008 18.04C173.528 18.92 173.288 19.9867 173.288 21.24C173.288 22.4933 173.528 23.56 174.008 24.44C174.514 25.32 175.194 26 176.048 26.48C176.901 26.96 177.861 27.2 178.928 27.2C179.914 27.2 180.821 26.9733 181.648 26.52C182.501 26.04 183.208 25.28 183.768 24.24L188.608 26.88C187.808 28.6133 186.568 29.96 184.888 30.92C183.208 31.8533 181.234 32.32 178.968 32.32ZM201.313 32.32C198.779 32.32 196.806 31.68 195.393 30.4C193.979 29.0933 193.273 27.16 193.273 24.6V5.72H199.513V24.52C199.513 25.4267 199.753 26.1333 200.233 26.64C200.713 27.12 201.366 27.36 202.193 27.36C203.179 27.36 204.019 27.0933 204.713 26.56L206.393 30.96C205.753 31.4133 204.979 31.76 204.073 32C203.193 32.2133 202.273 32.32 201.313 32.32ZM189.953 15.76V10.96H204.873V15.76H189.953Z" fill="#181818"/>
<rect y="10" width="16" height="16" fill="#EC6800"/>
<rect x="20" width="8" height="8" fill="#EC6800"/>
</svg>
