<svg width="71" height="98" viewBox="0 0 71 98" fill="none" xmlns="http://www.w3.org/2000/svg">
<path d="M5.56095 92.1572C4.82735 92.1572 4.18545 92.0459 3.63525 91.8231C3.09815 91.5873 2.66585 91.2598 2.33835 90.8406C2.02395 90.4214 1.834 89.9236 1.7685 89.3472H3.537C3.6156 89.7271 3.8252 90.0284 4.1658 90.2512C4.5195 90.4738 4.98455 90.5852 5.56095 90.5852H6.38625C7.08055 90.5852 7.598 90.4476 7.9386 90.1725C8.2792 89.8843 8.4495 89.5044 8.4495 89.0328C8.4495 88.5743 8.2923 88.2141 7.9779 87.9521C7.6766 87.677 7.22465 87.4936 6.62205 87.4019L5.16795 87.1661C4.10685 86.9827 3.3143 86.6552 2.7903 86.1836C2.2794 85.6989 2.02395 84.998 2.02395 84.081C2.02395 83.1116 2.3318 82.3649 2.9475 81.8409C3.5632 81.3038 4.48675 81.0353 5.71815 81.0353H6.46485C7.49975 81.0353 8.3316 81.2776 8.9604 81.7623C9.5892 82.247 9.9691 82.902 10.1001 83.7273H8.3316C8.253 83.3867 8.0565 83.1182 7.7421 82.9217C7.4277 82.7121 7.00195 82.6073 6.46485 82.6073H5.71815C5.05005 82.6073 4.5588 82.7317 4.2444 82.9806C3.9431 83.2295 3.79245 83.6029 3.79245 84.1007C3.79245 84.5461 3.92345 84.8736 4.18545 85.0832C4.44745 85.2928 4.8601 85.4434 5.4234 85.5351L6.8775 85.771C8.0434 85.9544 8.88835 86.2949 9.41235 86.7927C9.94945 87.2905 10.218 88.011 10.218 88.9543C10.218 89.9498 9.89705 90.7358 9.25515 91.3123C8.62635 91.8756 7.67005 92.1572 6.38625 92.1572H5.56095ZM13.5901 92V77.6555H15.3586V81.1925V83.2557H15.732L15.3586 83.6684C15.3586 82.8169 15.6141 82.1619 16.125 81.7034C16.6359 81.2318 17.3433 80.996 18.2472 80.996C19.3345 80.996 20.1991 81.3301 20.841 81.9982C21.4829 82.6662 21.8038 83.5767 21.8038 84.7295V92H20.0353V84.926C20.0353 84.1531 19.8257 83.557 19.4065 83.1378C19.0004 82.7055 18.4437 82.4894 17.7363 82.4894C17.0027 82.4894 16.4197 82.7186 15.9874 83.1771C15.5682 83.6356 15.3586 84.2841 15.3586 85.1225V92H13.5901ZM29.4596 92.1572C28.595 92.1572 27.8483 91.9934 27.2195 91.6659C26.5907 91.3384 26.0995 90.8668 25.7458 90.2512C25.4052 89.6223 25.2349 88.8822 25.2349 88.0307V85.1618C25.2349 84.2972 25.4052 83.557 25.7458 82.9413C26.0995 82.3256 26.5907 81.854 27.2195 81.5265C27.8483 81.199 28.595 81.0353 29.4596 81.0353C30.3242 81.0353 31.0709 81.199 31.6997 81.5265C32.3285 81.854 32.8132 82.3256 33.1538 82.9413C33.5075 83.557 33.6844 84.2906 33.6844 85.1421V88.0307C33.6844 88.8822 33.5075 89.6223 33.1538 90.2512C32.8132 90.8668 32.3285 91.3384 31.6997 91.6659C31.0709 91.9934 30.3242 92.1572 29.4596 92.1572ZM29.4596 90.5852C30.2325 90.5852 30.8351 90.369 31.2674 89.9367C31.6997 89.5044 31.9159 88.8691 31.9159 88.0307V85.1618C31.9159 84.3234 31.6997 83.688 31.2674 83.2557C30.8351 82.8234 30.2325 82.6073 29.4596 82.6073C28.6998 82.6073 28.0972 82.8234 27.6518 83.2557C27.2195 83.688 27.0034 84.3234 27.0034 85.1618V88.0307C27.0034 88.8691 27.2195 89.5044 27.6518 89.9367C28.0972 90.369 28.6998 90.5852 29.4596 90.5852ZM40.0433 92L36.4277 81.1925H38.2355L40.6328 88.463C40.7769 88.8953 40.9079 89.3145 41.0258 89.7206C41.1437 90.1136 41.2289 90.4214 41.2813 90.6441C41.3468 90.4214 41.4385 90.1136 41.5564 89.7206C41.6743 89.3145 41.7987 88.8953 41.9297 88.463L44.2681 81.1925H46.0562L42.4406 92H40.0433ZM53.0243 92.1965C52.1728 92.1965 51.4261 92.0262 50.7842 91.6856C50.1554 91.345 49.6641 90.8668 49.3104 90.2512C48.9698 89.6223 48.7995 88.8953 48.7995 88.07V85.1225C48.7995 84.2841 48.9698 83.557 49.3104 82.9413C49.6641 82.3256 50.1554 81.8475 50.7842 81.5069C51.4261 81.1663 52.1728 80.996 53.0243 80.996C53.8758 80.996 54.6159 81.1663 55.2447 81.5069C55.8866 81.8475 56.3779 82.3256 56.7185 82.9413C57.0722 83.557 57.249 84.2841 57.249 85.1225V87.0285H50.5287V88.07C50.5287 88.9215 50.7449 89.5765 51.1772 90.035C51.6095 90.4804 52.2252 90.7031 53.0243 90.7031C53.7055 90.7031 54.2557 90.5852 54.6749 90.3494C55.0941 90.1005 55.3495 89.7337 55.4412 89.249H57.2097C57.0918 90.1529 56.6464 90.8734 55.8735 91.4105C55.1137 91.9345 54.164 92.1965 53.0243 92.1965ZM55.5198 85.8495V85.1225C55.5198 84.271 55.3037 83.616 54.8714 83.1575C54.4522 82.699 53.8365 82.4697 53.0243 82.4697C52.2252 82.4697 51.6095 82.699 51.1772 83.1575C50.7449 83.616 50.5287 84.271 50.5287 85.1225V85.6923H55.6574L55.5198 85.8495ZM66.2804 92C65.6516 92 65.1014 91.8755 64.6298 91.6266C64.1582 91.3777 63.7914 91.024 63.5294 90.5655C63.2674 90.107 63.1364 89.57 63.1364 88.9543V79.2668H59.5011V77.6555H64.9049V88.9543C64.9049 89.3996 65.0293 89.7533 65.2782 90.0153C65.5271 90.2642 65.8612 90.3887 66.2804 90.3887H69.7191V92H66.2804Z" fill="#FDFDFD"/>
<path d="M34.5131 7.04229L46.5482 13.9921L52.6505 10.4787L34.5131 0L4.21741 17.5056L10.2889 21.019L34.5131 7.04229Z" fill="#FDFDFD"/>
<path d="M58.7222 13.9921L34.5133 27.9688L22.4782 21.019L16.3914 24.5324L34.5133 34.9957L64.8245 17.5056L58.7222 13.9921Z" fill="#FDFDFD"/>
<path d="M9.08689 37.5076L3 33.9941V54.9207L33.2957 72.4263V65.3994L9.08689 51.4073V37.5076Z" fill="#FDFDFD"/>
<path d="M3 26.9671L27.2089 40.9438V54.8435L33.2957 58.3723V37.4304L3 19.9402V26.9671Z" fill="#FDFDFD"/>
<path d="M53.8681 33.9941V26.9672L35.7307 37.4304V72.4262L41.8176 68.9127V40.9439L53.8681 33.9941Z" fill="#FDFDFD"/>
<path d="M59.9395 23.4536V51.4071L47.9044 58.3723V65.3992L66.0418 54.9205V19.9402L59.9395 23.4536Z" fill="#FDFDFD"/>
</svg>
