<svg width="187" height="63" viewBox="0 0 187 63" fill="none" xmlns="http://www.w3.org/2000/svg">
<path d="M44.5 52.124V53.118H51.528V52.124H44.5ZM44.5 50.444V51.41H51.528V50.444H44.5ZM43.478 49.688H52.564V53.86H43.478V49.688ZM41.812 54.644H54.146V55.512H41.812V54.644ZM48.028 56.394H53.012V57.248H48.028V56.394ZM43.632 56.478H47.09V57.262H43.632V56.478ZM43.632 58.242H47.09V59.026H43.632V58.242ZM49.498 57.178C50.31 59.18 52.102 60.706 54.482 61.294C54.258 61.49 53.978 61.868 53.838 62.12C51.374 61.392 49.568 59.726 48.644 57.43L49.498 57.178ZM52.69 56.394H52.886L53.068 56.352L53.712 56.618C52.788 59.46 50.534 61.21 48.098 62.05C47.986 61.798 47.72 61.42 47.524 61.224C49.764 60.552 51.92 58.914 52.69 56.562V56.394ZM41.686 60.384C43.058 60.272 45.088 60.048 47.062 59.824V60.692C45.172 60.916 43.226 61.154 41.784 61.322L41.686 60.384ZM46.53 54.924H47.538V62.12H46.53V54.924ZM43.016 54.938H43.996V60.636H43.016V54.938ZM63.918 53.972H69.126V54.952H63.918V53.972ZM56.554 50.71H62.728V51.606H56.554V50.71ZM56.4 56.268H62.798V57.178H56.4V56.268ZM56.358 53.916H62.896V54.812H56.358V53.916ZM66.522 54.364H67.544V62.05H66.522V54.364ZM59.144 49.296H60.166V51.172H59.144V49.296ZM59.144 54.644H60.166V62.106H59.144V54.644ZM63.414 50.388L64.702 50.78C64.688 50.892 64.604 50.948 64.408 50.976V55.302C64.408 57.402 64.156 60.244 62.182 62.19C62.056 61.952 61.678 61.602 61.426 61.462C63.218 59.698 63.414 57.276 63.414 55.288V50.388ZM68.104 49.408L68.944 50.178C67.628 50.766 65.668 51.242 63.988 51.536C63.932 51.312 63.792 50.948 63.666 50.738C65.234 50.402 67.082 49.912 68.104 49.408ZM60.068 57.444C60.516 57.752 62.042 58.998 62.392 59.32L61.776 60.104C61.328 59.586 60.012 58.354 59.494 57.92L60.068 57.444ZM57.394 51.858L58.22 51.676C58.514 52.292 58.752 53.118 58.822 53.65L57.94 53.888C57.898 53.342 57.674 52.502 57.394 51.858ZM60.978 51.648L61.93 51.858C61.664 52.558 61.37 53.342 61.118 53.86L60.278 53.664C60.53 53.104 60.824 52.236 60.978 51.648ZM59.158 56.73L59.914 57.024C59.2 58.578 57.912 60.23 56.792 61.098C56.624 60.86 56.316 60.524 56.078 60.356C57.212 59.614 58.486 58.102 59.158 56.73ZM76.378 57.262H81.95V58.074H76.378V57.262ZM75.076 50.346H83.392V51.144H75.076V50.346ZM75.412 52.04H83.042V52.81H75.412V52.04ZM74.642 53.79H83.798V54.588H74.642V53.79ZM76.378 59.138H81.992V59.922H76.378V59.138ZM75.664 55.414H81.95V56.226H76.644V62.106H75.664V55.414ZM81.698 55.414H82.706V60.944C82.706 61.476 82.594 61.756 82.202 61.91C81.81 62.064 81.18 62.078 80.186 62.064C80.144 61.812 80.004 61.42 79.878 61.154C80.578 61.182 81.25 61.182 81.446 61.168C81.642 61.168 81.698 61.112 81.698 60.93V55.414ZM78.66 49.24H79.696V54.042H78.66V49.24ZM72.514 49.24H73.48V62.106H72.514V49.24ZM71.408 51.942L72.192 52.054C72.15 53.146 71.912 54.77 71.59 55.82L70.778 55.554C71.1 54.588 71.324 53.048 71.408 51.942ZM73.606 51.578L74.306 51.298C74.614 51.942 74.95 52.768 75.076 53.286L74.348 53.636C74.208 53.104 73.886 52.236 73.606 51.578ZM92.884 54.658H97.462V55.526H92.884V54.658ZM92.352 49.898H97.364V50.836H93.318V62.134H92.352V49.898ZM96.86 49.898H97.84V52.6C97.84 53.118 97.728 53.398 97.294 53.552C96.86 53.706 96.16 53.72 95.082 53.72C95.04 53.44 94.9 53.062 94.76 52.796C95.628 52.824 96.356 52.824 96.58 52.81C96.804 52.796 96.86 52.74 96.86 52.586V49.898ZM94.256 55.232C95.012 57.85 96.594 60.244 98.694 61.266C98.456 61.476 98.134 61.854 97.966 62.12C95.81 60.902 94.256 58.354 93.43 55.442L94.256 55.232ZM97.14 54.658H97.336L97.518 54.602L98.162 54.84C97.616 57.878 96.23 60.636 93.99 62.148C93.836 61.91 93.528 61.616 93.29 61.434C95.39 60.062 96.706 57.444 97.14 54.882V54.658ZM86.178 50.682H91.372V51.592H86.178V50.682ZM86.01 58.34H91.554V59.25H86.01V58.34ZM85.674 52.992H91.904V53.902H85.674V52.992ZM85.87 55.904H91.736V56.814H85.87V55.904ZM88.334 49.268H89.314V53.314H88.334V49.268ZM88.334 56.282H89.314V62.092H88.334V56.282ZM90.224 53.846L91.12 54.084C90.84 54.756 90.574 55.484 90.308 55.974L89.524 55.736C89.762 55.218 90.07 54.392 90.224 53.846ZM86.654 54.07L87.452 53.874C87.76 54.462 88.04 55.26 88.11 55.75L87.27 55.988C87.2 55.484 86.934 54.686 86.654 54.07Z" fill="#5D5D5D"/>
<path d="M44.32 32V4H49.68L66.2 24.16H63.6V4H70V32H64.68L48.12 11.84H50.72V32H44.32ZM86.8647 32.32C84.4114 32.32 82.2514 31.84 80.3847 30.88C78.5447 29.92 77.118 28.6133 76.1047 26.96C75.0914 25.28 74.5847 23.3733 74.5847 21.24C74.5847 19.08 75.078 17.1733 76.0647 15.52C77.078 13.84 78.4514 12.5333 80.1847 11.6C81.918 10.64 83.878 10.16 86.0647 10.16C88.1714 10.16 90.0647 10.6133 91.7447 11.52C93.4514 12.4 94.798 13.68 95.7847 15.36C96.7714 17.0133 97.2647 19 97.2647 21.32C97.2647 21.56 97.2514 21.84 97.2247 22.16C97.198 22.4533 97.1714 22.7333 97.1447 23H79.6647V19.36H93.8647L91.4647 20.44C91.4647 19.32 91.238 18.3467 90.7847 17.52C90.3314 16.6933 89.7047 16.0533 88.9047 15.6C88.1047 15.12 87.1714 14.88 86.1047 14.88C85.038 14.88 84.0914 15.12 83.2647 15.6C82.4647 16.0533 81.838 16.7067 81.3847 17.56C80.9314 18.3867 80.7047 19.3733 80.7047 20.52V21.48C80.7047 22.6533 80.958 23.6933 81.4647 24.6C81.998 25.48 82.7314 26.16 83.6647 26.64C84.6247 27.0933 85.7447 27.32 87.0247 27.32C88.1714 27.32 89.1714 27.1467 90.0247 26.8C90.9047 26.4533 91.7047 25.9333 92.4247 25.24L95.7447 28.84C94.758 29.96 93.518 30.8267 92.0247 31.44C90.5314 32.0267 88.8114 32.32 86.8647 32.32ZM105.948 32L98.1884 10.48H104.068L110.508 29H107.708L114.428 10.48H119.708L126.228 29H123.428L130.068 10.48H135.588L127.788 32H121.748L116.028 16.12H117.868L111.948 32H105.948ZM145.417 32.32C143.577 32.32 141.804 32.1067 140.097 31.68C138.417 31.2267 137.084 30.6667 136.097 30L138.177 25.52C139.164 26.1333 140.324 26.64 141.657 27.04C143.017 27.4133 144.35 27.6 145.657 27.6C147.097 27.6 148.11 27.4267 148.697 27.08C149.31 26.7333 149.617 26.2533 149.617 25.64C149.617 25.1333 149.377 24.76 148.897 24.52C148.444 24.2533 147.83 24.0533 147.057 23.92C146.284 23.7867 145.43 23.6533 144.497 23.52C143.59 23.3867 142.67 23.2133 141.737 23C140.804 22.76 139.95 22.4133 139.177 21.96C138.404 21.5067 137.777 20.8933 137.297 20.12C136.844 19.3467 136.617 18.3467 136.617 17.12C136.617 15.76 137.004 14.56 137.777 13.52C138.577 12.48 139.724 11.6667 141.217 11.08C142.71 10.4667 144.497 10.16 146.577 10.16C148.044 10.16 149.537 10.32 151.057 10.64C152.577 10.96 153.844 11.4267 154.857 12.04L152.777 16.48C151.737 15.8667 150.684 15.4533 149.617 15.24C148.577 15 147.564 14.88 146.577 14.88C145.19 14.88 144.177 15.0667 143.537 15.44C142.897 15.8133 142.577 16.2933 142.577 16.88C142.577 17.4133 142.804 17.8133 143.257 18.08C143.737 18.3467 144.364 18.56 145.137 18.72C145.91 18.88 146.75 19.0267 147.657 19.16C148.59 19.2667 149.524 19.44 150.457 19.68C151.39 19.92 152.23 20.2667 152.977 20.72C153.75 21.1467 154.377 21.7467 154.857 22.52C155.337 23.2667 155.577 24.2533 155.577 25.48C155.577 26.8133 155.177 28 154.377 29.04C153.577 30.0533 152.417 30.8533 150.897 31.44C149.404 32.0267 147.577 32.32 145.417 32.32Z" fill="#181818"/>
<rect y="10" width="16" height="16" fill="#EC6800"/>
<rect x="20" width="8" height="8" fill="#EC6800"/>
</svg>
