<svg width="288" height="63" viewBox="0 0 288 63" fill="none" xmlns="http://www.w3.org/2000/svg">
<path d="M41.882 57.892H54.146V58.774H41.882V57.892ZM41.938 51.746H54.09V52.642H41.938V51.746ZM42.498 54.14H53.586V55.008H42.498V54.14ZM43.212 56.03H52.9V56.842H43.212V56.03ZM47.454 54.546H48.49V62.134H47.454V54.546ZM46.166 49.24H47.16V52.166H46.166V49.24ZM48.812 49.24H49.82V52.124H48.812V49.24ZM47.118 58.242L47.958 58.634C46.656 60.09 44.29 61.308 42.204 61.896C42.05 61.63 41.742 61.224 41.518 61C43.59 60.538 45.928 59.46 47.118 58.242ZM48.826 58.214C50.016 59.474 52.368 60.552 54.496 61C54.258 61.224 53.936 61.644 53.782 61.938C51.654 61.35 49.316 60.076 48 58.564L48.826 58.214ZM52.06 49.408L53.138 49.702C52.732 50.472 52.228 51.298 51.836 51.844L50.982 51.564C51.36 50.976 51.822 50.052 52.06 49.408ZM50.184 52.376L51.276 52.642C50.926 53.272 50.562 53.916 50.254 54.364L49.372 54.098C49.652 53.608 50.016 52.88 50.184 52.376ZM43.072 49.702L43.968 49.38C44.444 50.01 44.962 50.892 45.158 51.466L44.22 51.816C44.024 51.256 43.52 50.36 43.072 49.702ZM44.892 52.74L45.886 52.544C46.208 53.006 46.53 53.636 46.656 54.056L45.62 54.28C45.508 53.86 45.2 53.202 44.892 52.74ZM56.498 49.94H61.272V50.85H56.498V49.94ZM61.902 57.094H67.978V58.004H61.902V57.094ZM56.344 54.168H61.608V55.106H56.344V54.168ZM58.794 54.546H59.802V60.902C59.802 61.448 59.704 61.728 59.326 61.91C58.976 62.064 58.43 62.078 57.562 62.078C57.534 61.812 57.394 61.378 57.254 61.098C57.856 61.112 58.416 61.112 58.584 61.112C58.738 61.098 58.794 61.056 58.794 60.902V54.546ZM67.614 57.094H68.692C68.692 57.094 68.678 57.402 68.65 57.556C68.384 60.188 68.132 61.252 67.726 61.672C67.474 61.924 67.222 62.008 66.844 62.036C66.522 62.064 65.906 62.064 65.276 62.022C65.248 61.742 65.15 61.322 64.996 61.042C65.598 61.098 66.158 61.112 66.382 61.112C66.606 61.112 66.732 61.098 66.858 60.972C67.152 60.692 67.404 59.712 67.614 57.262V57.094ZM64.52 55.708H65.57C65.304 58.536 64.618 60.902 61.454 62.134C61.328 61.882 61.048 61.504 60.824 61.322C63.736 60.244 64.282 58.13 64.52 55.708ZM56.988 52.278L57.646 51.606C58.822 52.096 60.278 52.922 61.006 53.566L60.306 54.336C59.606 53.692 58.178 52.81 56.988 52.278ZM61.328 54.168H61.482L61.636 54.126L62.28 54.35C61.986 55.526 61.566 56.87 61.132 57.738L60.39 57.374C60.754 56.604 61.104 55.358 61.328 54.35V54.168ZM66.942 51.144L68.02 51.326C67.082 53.86 64.982 55.26 62.336 56.086C62.21 55.862 61.888 55.428 61.678 55.204C64.226 54.56 66.186 53.314 66.942 51.144ZM63.946 49.24L64.94 49.506C64.282 51.004 63.204 52.404 62.126 53.3C61.944 53.118 61.524 52.824 61.258 52.684C62.364 51.858 63.386 50.584 63.946 49.24ZM63.694 51.438C64.702 53.3 66.788 54.7 69.28 55.246C69.056 55.456 68.748 55.862 68.608 56.142C66.046 55.456 63.946 53.888 62.826 51.732L63.694 51.438ZM58.668 54.476L59.382 54.742C58.85 56.59 57.842 58.76 56.75 59.852C56.638 59.558 56.386 59.124 56.204 58.872C57.212 57.92 58.206 56.086 58.668 54.476ZM63.638 50.724H68.986V51.62H63.204L63.638 50.724ZM61.02 49.94H61.244L61.412 49.898L62.098 50.332C61.454 51.312 60.362 52.376 59.396 53.02C59.214 52.852 58.892 52.628 58.682 52.502C59.578 51.914 60.558 50.892 61.02 50.136V49.94ZM77.652 52.768V55.582H82.286V52.768H77.652ZM76.644 51.844H83.35V56.506H76.644V51.844ZM81.964 49.226L83.042 49.548C82.664 50.36 82.216 51.27 81.866 51.858L80.984 51.564C81.32 50.948 81.754 49.926 81.964 49.226ZM76.952 49.618L77.876 49.31C78.338 49.996 78.786 50.934 78.968 51.564L78.002 51.928C77.834 51.298 77.386 50.332 76.952 49.618ZM80.438 56.268H81.446V60.664C81.446 61.028 81.488 61.084 81.782 61.084C81.908 61.084 82.51 61.084 82.692 61.084C83 61.084 83.07 60.804 83.098 58.9C83.322 59.082 83.728 59.25 84.022 59.32C83.924 61.49 83.672 62.022 82.804 62.022C82.594 62.022 81.824 62.022 81.628 62.022C80.676 62.022 80.438 61.714 80.438 60.664V56.268ZM78.142 56.296H79.206C79.01 58.886 78.52 61 76.294 62.204C76.154 61.938 75.846 61.574 75.594 61.392C77.61 60.37 78.002 58.508 78.142 56.296ZM71.59 53.566H75.538V54.392H71.59V53.566ZM71.674 49.744H75.524V50.584H71.674V49.744ZM71.59 55.47H75.538V56.31H71.59V55.47ZM70.932 51.62H76.028V52.488H70.932V51.62ZM72.094 57.388H75.622V61.476H72.094V60.608H74.698V58.27H72.094V57.388ZM71.576 57.388H72.486V62.12H71.576V57.388ZM86.794 50.108H90.812V58.466H86.794V57.486H89.832V51.074H86.794V50.108ZM86.808 53.734H90.252V54.686H86.808V53.734ZM92.716 49.842H97.434V50.822H92.716V49.842ZM92.716 53.244H97.434V54.21H92.716V53.244ZM92.632 56.688H97.406V57.64H92.632V56.688ZM86.22 50.108H87.2V59.768H86.22V50.108ZM97.042 49.842H98.092V60.748C98.092 61.406 97.924 61.728 97.476 61.91C97.028 62.078 96.258 62.092 95.054 62.092C94.998 61.812 94.83 61.35 94.676 61.07C95.572 61.098 96.454 61.084 96.706 61.084C96.958 61.07 97.042 60.986 97.042 60.734V49.842ZM92.1 49.842H93.136V54.84C93.136 57.192 92.786 60.286 90.266 62.218C90.112 62.008 89.72 61.644 89.496 61.504C91.862 59.684 92.1 57.024 92.1 54.84V49.842ZM101.158 60.594C103.594 60.538 107.5 60.398 111.14 60.23L111.098 61.196C107.57 61.378 103.776 61.546 101.298 61.63L101.158 60.594ZM101.032 56.268H112.638V57.262H101.032V56.268ZM103.426 53.594H110.118V54.574H103.426V53.594ZM104.868 56.898L106.044 57.234C105.4 58.578 104.588 60.216 103.902 61.266L102.964 60.958C103.622 59.866 104.448 58.13 104.868 56.898ZM108.2 58.382L109.096 57.906C110.384 59.012 111.756 60.524 112.414 61.588L111.462 62.162C110.832 61.112 109.446 59.502 108.2 58.382ZM106.744 50.276C105.596 51.984 103.3 53.902 100.92 55.092C100.794 54.84 100.528 54.462 100.304 54.238C102.712 53.09 105.05 51.06 106.142 49.268H107.22C108.704 51.34 111.154 53.174 113.38 54.084C113.128 54.336 112.876 54.714 112.694 55.022C110.51 53.972 108.046 52.096 106.744 50.276Z" fill="#5D5D5D"/>
<path d="M44.32 32V4H50.8V32H44.32ZM70.085 10.16C71.7917 10.16 73.3117 10.5067 74.645 11.2C76.005 11.8667 77.0717 12.9067 77.845 14.32C78.6183 15.7067 79.005 17.4933 79.005 19.68V32H72.765V20.64C72.765 18.9067 72.3783 17.6267 71.605 16.8C70.8583 15.9733 69.7917 15.56 68.405 15.56C67.4183 15.56 66.525 15.7733 65.725 16.2C64.9517 16.6 64.3383 17.2267 63.885 18.08C63.4583 18.9333 63.245 20.0267 63.245 21.36V32H57.005V10.48H62.965V16.44L61.845 14.64C62.6183 13.2 63.725 12.0933 65.165 11.32C66.605 10.5467 68.245 10.16 70.085 10.16ZM85.4213 32V10C85.4213 7.57333 86.1413 5.64 87.5813 4.2C89.0213 2.73333 91.0746 2 93.7413 2C94.6479 2 95.5146 2.09333 96.3413 2.28C97.1946 2.46666 97.9146 2.76 98.5013 3.16L96.8613 7.68C96.5146 7.44 96.1279 7.25333 95.7013 7.12C95.2746 6.98667 94.8213 6.92 94.3413 6.92C93.4346 6.92 92.7279 7.18667 92.2213 7.72C91.7413 8.22667 91.5013 9 91.5013 10.04V12.04L91.6613 14.72V32H85.4213ZM82.1013 15.76V10.96H97.0213V15.76H82.1013ZM110.097 32.32C107.803 32.32 105.763 31.84 103.977 30.88C102.217 29.92 100.817 28.6133 99.7766 26.96C98.7632 25.28 98.2566 23.3733 98.2566 21.24C98.2566 19.08 98.7632 17.1733 99.7766 15.52C100.817 13.84 102.217 12.5333 103.977 11.6C105.763 10.64 107.803 10.16 110.097 10.16C112.363 10.16 114.39 10.64 116.177 11.6C117.963 12.5333 119.363 13.8267 120.377 15.48C121.39 17.1333 121.897 19.0533 121.897 21.24C121.897 23.3733 121.39 25.28 120.377 26.96C119.363 28.6133 117.963 29.92 116.177 30.88C114.39 31.84 112.363 32.32 110.097 32.32ZM110.097 27.2C111.137 27.2 112.07 26.96 112.897 26.48C113.723 26 114.377 25.32 114.857 24.44C115.337 23.5333 115.577 22.4667 115.577 21.24C115.577 19.9867 115.337 18.92 114.857 18.04C114.377 17.16 113.723 16.48 112.897 16C112.07 15.52 111.137 15.28 110.097 15.28C109.057 15.28 108.123 15.52 107.297 16C106.47 16.48 105.803 17.16 105.297 18.04C104.817 18.92 104.577 19.9867 104.577 21.24C104.577 22.4667 104.817 23.5333 105.297 24.44C105.803 25.32 106.47 26 107.297 26.48C108.123 26.96 109.057 27.2 110.097 27.2ZM126.068 32V10.48H132.028V16.56L131.188 14.8C131.828 13.28 132.854 12.1333 134.268 11.36C135.681 10.56 137.401 10.16 139.428 10.16V15.92C139.161 15.8933 138.921 15.88 138.708 15.88C138.494 15.8533 138.268 15.84 138.028 15.84C136.321 15.84 134.934 16.3333 133.868 17.32C132.828 18.28 132.308 19.7867 132.308 21.84V32H126.068ZM170.737 10.16C172.444 10.16 173.95 10.5067 175.257 11.2C176.59 11.8667 177.63 12.9067 178.377 14.32C179.15 15.7067 179.537 17.4933 179.537 19.68V32H173.297V20.64C173.297 18.9067 172.937 17.6267 172.217 16.8C171.497 15.9733 170.484 15.56 169.177 15.56C168.27 15.56 167.457 15.7733 166.737 16.2C166.017 16.6 165.457 17.2133 165.057 18.04C164.657 18.8667 164.457 19.92 164.457 21.2V32H158.217V20.64C158.217 18.9067 157.857 17.6267 157.137 16.8C156.444 15.9733 155.444 15.56 154.137 15.56C153.23 15.56 152.417 15.7733 151.697 16.2C150.977 16.6 150.417 17.2133 150.017 18.04C149.617 18.8667 149.417 19.92 149.417 21.2V32H143.177V10.48H149.137V16.36L148.017 14.64C148.764 13.1733 149.817 12.0667 151.177 11.32C152.564 10.5467 154.137 10.16 155.897 10.16C157.87 10.16 159.59 10.6667 161.057 11.68C162.55 12.6667 163.537 14.1867 164.017 16.24L161.817 15.64C162.537 13.96 163.684 12.6267 165.257 11.64C166.857 10.6533 168.684 10.16 170.737 10.16ZM198.33 32V27.8L197.93 26.88V19.36C197.93 18.0267 197.517 16.9867 196.69 16.24C195.89 15.4933 194.65 15.12 192.97 15.12C191.823 15.12 190.69 15.3067 189.57 15.68C188.477 16.0267 187.543 16.5067 186.77 17.12L184.53 12.76C185.703 11.9333 187.117 11.2933 188.77 10.84C190.423 10.3867 192.103 10.16 193.81 10.16C197.09 10.16 199.637 10.9333 201.45 12.48C203.263 14.0267 204.17 16.44 204.17 19.72V32H198.33ZM191.77 32.32C190.09 32.32 188.65 32.04 187.45 31.48C186.25 30.8933 185.33 30.1067 184.69 29.12C184.05 28.1333 183.73 27.0267 183.73 25.8C183.73 24.52 184.037 23.4 184.65 22.44C185.29 21.48 186.29 20.7333 187.65 20.2C189.01 19.64 190.783 19.36 192.97 19.36H198.69V23H193.65C192.183 23 191.17 23.24 190.61 23.72C190.077 24.2 189.81 24.8 189.81 25.52C189.81 26.32 190.117 26.96 190.73 27.44C191.37 27.8933 192.237 28.12 193.33 28.12C194.37 28.12 195.303 27.88 196.13 27.4C196.957 26.8933 197.557 26.16 197.93 25.2L198.89 28.08C198.437 29.4667 197.61 30.52 196.41 31.24C195.21 31.96 193.663 32.32 191.77 32.32ZM218.618 32.32C216.084 32.32 214.111 31.68 212.698 30.4C211.284 29.0933 210.578 27.16 210.578 24.6V5.72H216.818V24.52C216.818 25.4267 217.058 26.1333 217.538 26.64C218.018 27.12 218.671 27.36 219.498 27.36C220.484 27.36 221.324 27.0933 222.018 26.56L223.698 30.96C223.058 31.4133 222.284 31.76 221.378 32C220.498 32.2133 219.578 32.32 218.618 32.32ZM207.258 15.76V10.96H222.178V15.76H207.258ZM227.2 32V10.48H233.44V32H227.2ZM230.32 7.48C229.174 7.48 228.24 7.14667 227.52 6.48C226.8 5.81333 226.44 4.98666 226.44 4C226.44 3.01333 226.8 2.18667 227.52 1.52C228.24 0.853331 229.174 0.519998 230.32 0.519998C231.467 0.519998 232.4 0.839998 233.12 1.48C233.84 2.09333 234.2 2.89333 234.2 3.88C234.2 4.92 233.84 5.78667 233.12 6.48C232.427 7.14667 231.494 7.48 230.32 7.48ZM249.472 32.32C247.178 32.32 245.138 31.84 243.352 30.88C241.592 29.92 240.192 28.6133 239.152 26.96C238.138 25.28 237.632 23.3733 237.632 21.24C237.632 19.08 238.138 17.1733 239.152 15.52C240.192 13.84 241.592 12.5333 243.352 11.6C245.138 10.64 247.178 10.16 249.472 10.16C251.738 10.16 253.765 10.64 255.552 11.6C257.338 12.5333 258.738 13.8267 259.752 15.48C260.765 17.1333 261.272 19.0533 261.272 21.24C261.272 23.3733 260.765 25.28 259.752 26.96C258.738 28.6133 257.338 29.92 255.552 30.88C253.765 31.84 251.738 32.32 249.472 32.32ZM249.472 27.2C250.512 27.2 251.445 26.96 252.272 26.48C253.098 26 253.752 25.32 254.232 24.44C254.712 23.5333 254.952 22.4667 254.952 21.24C254.952 19.9867 254.712 18.92 254.232 18.04C253.752 17.16 253.098 16.48 252.272 16C251.445 15.52 250.512 15.28 249.472 15.28C248.432 15.28 247.498 15.52 246.672 16C245.845 16.48 245.178 17.16 244.672 18.04C244.192 18.92 243.952 19.9867 243.952 21.24C243.952 22.4667 244.192 23.5333 244.672 24.44C245.178 25.32 245.845 26 246.672 26.48C247.498 26.96 248.432 27.2 249.472 27.2ZM278.523 10.16C280.229 10.16 281.749 10.5067 283.083 11.2C284.443 11.8667 285.509 12.9067 286.283 14.32C287.056 15.7067 287.443 17.4933 287.443 19.68V32H281.203V20.64C281.203 18.9067 280.816 17.6267 280.043 16.8C279.296 15.9733 278.229 15.56 276.843 15.56C275.856 15.56 274.963 15.7733 274.163 16.2C273.389 16.6 272.776 17.2267 272.323 18.08C271.896 18.9333 271.683 20.0267 271.683 21.36V32H265.443V10.48H271.403V16.44L270.283 14.64C271.056 13.2 272.163 12.0933 273.603 11.32C275.043 10.5467 276.683 10.16 278.523 10.16Z" fill="#181818"/>
<rect y="10" width="16" height="16" fill="#EC6800"/>
<rect x="20" width="8" height="8" fill="#EC6800"/>
</svg>
