<svg width="376" height="70" viewBox="0 0 376 70" fill="none" xmlns="http://www.w3.org/2000/svg">
<path d="M3.32 39V11H16.04C19.08 11 21.76 11.5867 24.08 12.76C26.4 13.9067 28.2133 15.52 29.52 17.6C30.8267 19.68 31.48 22.1467 31.48 25C31.48 27.8267 30.8267 30.2933 29.52 32.4C28.2133 34.48 26.4 36.1067 24.08 37.28C21.76 38.4267 19.08 39 16.04 39H3.32ZM9.8 33.68H15.72C17.5867 33.68 19.2 33.3333 20.56 32.64C21.9467 31.92 23.0133 30.9067 23.76 29.6C24.5333 28.2933 24.92 26.76 24.92 25C24.92 23.2133 24.5333 21.68 23.76 20.4C23.0133 19.0933 21.9467 18.0933 20.56 17.4C19.2 16.68 17.5867 16.32 15.72 16.32H9.8V33.68ZM48.6069 39.32C46.1535 39.32 43.9935 38.84 42.1269 37.88C40.2869 36.92 38.8602 35.6133 37.8469 33.96C36.8335 32.28 36.3269 30.3733 36.3269 28.24C36.3269 26.08 36.8202 24.1733 37.8069 22.52C38.8202 20.84 40.1935 19.5333 41.9269 18.6C43.6602 17.64 45.6202 17.16 47.8069 17.16C49.9135 17.16 51.8069 17.6133 53.4869 18.52C55.1935 19.4 56.5402 20.68 57.5269 22.36C58.5135 24.0133 59.0069 26 59.0069 28.32C59.0069 28.56 58.9935 28.84 58.9669 29.16C58.9402 29.4533 58.9135 29.7333 58.8869 30H41.4069V26.36H55.6069L53.2069 27.44C53.2069 26.32 52.9802 25.3467 52.5269 24.52C52.0735 23.6933 51.4469 23.0533 50.6469 22.6C49.8469 22.12 48.9135 21.88 47.8469 21.88C46.7802 21.88 45.8335 22.12 45.0069 22.6C44.2069 23.0533 43.5802 23.7067 43.1269 24.56C42.6735 25.3867 42.4469 26.3733 42.4469 27.52V28.48C42.4469 29.6533 42.7002 30.6933 43.2069 31.6C43.7402 32.48 44.4735 33.16 45.4069 33.64C46.3669 34.0933 47.4869 34.32 48.7669 34.32C49.9135 34.32 50.9135 34.1467 51.7669 33.8C52.6469 33.4533 53.4469 32.9333 54.1669 32.24L57.4869 35.84C56.5002 36.96 55.2602 37.8267 53.7669 38.44C52.2735 39.0267 50.5535 39.32 48.6069 39.32ZM72.4013 39.32C70.5613 39.32 68.7879 39.1067 67.0813 38.68C65.4013 38.2267 64.0679 37.6667 63.0813 37L65.1613 32.52C66.1479 33.1333 67.3079 33.64 68.6413 34.04C70.0013 34.4133 71.3346 34.6 72.6413 34.6C74.0813 34.6 75.0946 34.4267 75.6813 34.08C76.2946 33.7333 76.6013 33.2533 76.6013 32.64C76.6013 32.1333 76.3613 31.76 75.8813 31.52C75.4279 31.2533 74.8146 31.0533 74.0412 30.92C73.2679 30.7867 72.4146 30.6533 71.4813 30.52C70.5746 30.3867 69.6546 30.2133 68.7213 30C67.7879 29.76 66.9346 29.4133 66.1613 28.96C65.3879 28.5067 64.7613 27.8933 64.2813 27.12C63.8279 26.3467 63.6012 25.3467 63.6012 24.12C63.6012 22.76 63.9879 21.56 64.7613 20.52C65.5613 19.48 66.7079 18.6667 68.2013 18.08C69.6946 17.4667 71.4813 17.16 73.5613 17.16C75.0279 17.16 76.5213 17.32 78.0413 17.64C79.5613 17.96 80.8279 18.4267 81.8413 19.04L79.7613 23.48C78.7213 22.8667 77.6679 22.4533 76.6013 22.24C75.5613 22 74.5479 21.88 73.5613 21.88C72.1746 21.88 71.1613 22.0667 70.5213 22.44C69.8813 22.8133 69.5613 23.2933 69.5613 23.88C69.5613 24.4133 69.7879 24.8133 70.2413 25.08C70.7213 25.3467 71.3479 25.56 72.1213 25.72C72.8946 25.88 73.7346 26.0267 74.6413 26.16C75.5746 26.2667 76.5079 26.44 77.4413 26.68C78.3746 26.92 79.2146 27.2667 79.9613 27.72C80.7346 28.1467 81.3613 28.7467 81.8413 29.52C82.3213 30.2667 82.5613 31.2533 82.5613 32.48C82.5613 33.8133 82.1613 35 81.3613 36.04C80.5613 37.0533 79.4013 37.8533 77.8813 38.44C76.3879 39.0267 74.5613 39.32 72.4013 39.32ZM88.4113 39V17.48H94.6513V39H88.4113ZM91.5313 14.48C90.3846 14.48 89.4513 14.1467 88.7313 13.48C88.0113 12.8133 87.6513 11.9867 87.6513 11C87.6513 10.0133 88.0113 9.18667 88.7313 8.52C89.4513 7.85333 90.3846 7.52 91.5313 7.52C92.6779 7.52 93.6113 7.84 94.3313 8.48C95.0513 9.09333 95.4113 9.89333 95.4113 10.88C95.4113 11.92 95.0513 12.7867 94.3313 13.48C93.6379 14.1467 92.7046 14.48 91.5313 14.48ZM112.563 47.08C110.536 47.08 108.576 46.8267 106.683 46.32C104.816 45.84 103.256 45.1067 102.003 44.12L104.483 39.64C105.389 40.3867 106.536 40.9733 107.923 41.4C109.336 41.8533 110.723 42.08 112.083 42.08C114.296 42.08 115.896 41.5867 116.883 40.6C117.896 39.6133 118.403 38.1467 118.403 36.2V32.96L118.803 27.56L118.723 22.12V17.48H124.643V35.4C124.643 39.4 123.603 42.3467 121.523 44.24C119.443 46.1333 116.456 47.08 112.563 47.08ZM111.603 37.96C109.603 37.96 107.789 37.5333 106.163 36.68C104.563 35.8 103.269 34.5867 102.283 33.04C101.323 31.4667 100.843 29.64 100.843 27.56C100.843 25.4533 101.323 23.6267 102.283 22.08C103.269 20.5067 104.563 19.2933 106.163 18.44C107.789 17.5867 109.603 17.16 111.603 17.16C113.416 17.16 115.016 17.5333 116.403 18.28C117.789 19 118.869 20.1333 119.643 21.68C120.416 23.2 120.803 25.16 120.803 27.56C120.803 29.9333 120.416 31.8933 119.643 33.44C118.869 34.96 117.789 36.0933 116.403 36.84C115.016 37.5867 113.416 37.96 111.603 37.96ZM112.843 32.84C113.936 32.84 114.909 32.6267 115.763 32.2C116.616 31.7467 117.283 31.12 117.763 30.32C118.243 29.52 118.483 28.6 118.483 27.56C118.483 26.4933 118.243 25.5733 117.763 24.8C117.283 24 116.616 23.3867 115.763 22.96C114.909 22.5067 113.936 22.28 112.843 22.28C111.749 22.28 110.776 22.5067 109.923 22.96C109.069 23.3867 108.389 24 107.883 24.8C107.403 25.5733 107.163 26.4933 107.163 27.56C107.163 28.6 107.403 29.52 107.883 30.32C108.389 31.12 109.069 31.7467 109.923 32.2C110.776 32.6267 111.749 32.84 112.843 32.84ZM145.53 17.16C147.237 17.16 148.757 17.5067 150.09 18.2C151.45 18.8667 152.517 19.9067 153.29 21.32C154.064 22.7067 154.45 24.4933 154.45 26.68V39H148.21V27.64C148.21 25.9067 147.824 24.6267 147.05 23.8C146.304 22.9733 145.237 22.56 143.85 22.56C142.864 22.56 141.97 22.7733 141.17 23.2C140.397 23.6 139.784 24.2267 139.33 25.08C138.904 25.9333 138.69 27.0267 138.69 28.36V39H132.45V17.48H138.41V23.44L137.29 21.64C138.064 20.2 139.17 19.0933 140.61 18.32C142.05 17.5467 143.69 17.16 145.53 17.16ZM172.943 39.32C170.489 39.32 168.329 38.84 166.463 37.88C164.623 36.92 163.196 35.6133 162.183 33.96C161.169 32.28 160.663 30.3733 160.663 28.24C160.663 26.08 161.156 24.1733 162.143 22.52C163.156 20.84 164.529 19.5333 166.263 18.6C167.996 17.64 169.956 17.16 172.143 17.16C174.249 17.16 176.143 17.6133 177.823 18.52C179.529 19.4 180.876 20.68 181.863 22.36C182.849 24.0133 183.343 26 183.343 28.32C183.343 28.56 183.329 28.84 183.303 29.16C183.276 29.4533 183.249 29.7333 183.223 30H165.743V26.36H179.943L177.543 27.44C177.543 26.32 177.316 25.3467 176.863 24.52C176.409 23.6933 175.783 23.0533 174.983 22.6C174.183 22.12 173.249 21.88 172.183 21.88C171.116 21.88 170.169 22.12 169.343 22.6C168.543 23.0533 167.916 23.7067 167.463 24.56C167.009 25.3867 166.783 26.3733 166.783 27.52V28.48C166.783 29.6533 167.036 30.6933 167.543 31.6C168.076 32.48 168.809 33.16 169.743 33.64C170.703 34.0933 171.823 34.32 173.103 34.32C174.249 34.32 175.249 34.1467 176.103 33.8C176.983 33.4533 177.783 32.9333 178.503 32.24L181.823 35.84C180.836 36.96 179.596 37.8267 178.103 38.44C176.609 39.0267 174.889 39.32 172.943 39.32ZM189.497 39V17.48H195.457V23.56L194.617 21.8C195.257 20.28 196.284 19.1333 197.697 18.36C199.111 17.56 200.831 17.16 202.857 17.16V22.92C202.591 22.8933 202.351 22.88 202.137 22.88C201.924 22.8533 201.697 22.84 201.457 22.84C199.751 22.84 198.364 23.3333 197.297 24.32C196.257 25.28 195.737 26.7867 195.737 28.84V39H189.497ZM235.892 39.48C233.732 39.48 231.719 39.1333 229.852 38.44C228.012 37.72 226.412 36.7067 225.052 35.4C223.692 34.0933 222.625 32.56 221.852 30.8C221.105 29.04 220.732 27.1067 220.732 25C220.732 22.8933 221.105 20.96 221.852 19.2C222.625 17.44 223.692 15.9067 225.052 14.6C226.439 13.2933 228.052 12.2933 229.892 11.6C231.732 10.88 233.745 10.52 235.932 10.52C238.359 10.52 240.545 10.9467 242.492 11.8C244.465 12.6267 246.119 13.8533 247.452 15.48L243.292 19.32C242.332 18.2267 241.265 17.4133 240.092 16.88C238.919 16.32 237.639 16.04 236.252 16.04C234.945 16.04 233.745 16.2533 232.652 16.68C231.559 17.1067 230.612 17.72 229.812 18.52C229.012 19.32 228.385 20.2667 227.932 21.36C227.505 22.4533 227.292 23.6667 227.292 25C227.292 26.3333 227.505 27.5467 227.932 28.64C228.385 29.7333 229.012 30.68 229.812 31.48C230.612 32.28 231.559 32.8933 232.652 33.32C233.745 33.7467 234.945 33.96 236.252 33.96C237.639 33.96 238.919 33.6933 240.092 33.16C241.265 32.6 242.332 31.76 243.292 30.64L247.452 34.48C246.119 36.1067 244.465 37.3467 242.492 38.2C240.545 39.0533 238.345 39.48 235.892 39.48ZM262.886 39.32C260.592 39.32 258.552 38.84 256.766 37.88C255.006 36.92 253.606 35.6133 252.566 33.96C251.552 32.28 251.046 30.3733 251.046 28.24C251.046 26.08 251.552 24.1733 252.566 22.52C253.606 20.84 255.006 19.5333 256.766 18.6C258.552 17.64 260.592 17.16 262.886 17.16C265.152 17.16 267.179 17.64 268.966 18.6C270.752 19.5333 272.152 20.8267 273.166 22.48C274.179 24.1333 274.686 26.0533 274.686 28.24C274.686 30.3733 274.179 32.28 273.166 33.96C272.152 35.6133 270.752 36.92 268.966 37.88C267.179 38.84 265.152 39.32 262.886 39.32ZM262.886 34.2C263.926 34.2 264.859 33.96 265.686 33.48C266.512 33 267.166 32.32 267.646 31.44C268.126 30.5333 268.366 29.4667 268.366 28.24C268.366 26.9867 268.126 25.92 267.646 25.04C267.166 24.16 266.512 23.48 265.686 23C264.859 22.52 263.926 22.28 262.886 22.28C261.846 22.28 260.912 22.52 260.086 23C259.259 23.48 258.592 24.16 258.086 25.04C257.606 25.92 257.366 26.9867 257.366 28.24C257.366 29.4667 257.606 30.5333 258.086 31.44C258.592 32.32 259.259 33 260.086 33.48C260.912 33.96 261.846 34.2 262.886 34.2ZM289.937 39.32C288.15 39.32 286.55 38.9733 285.137 38.28C283.75 37.5867 282.67 36.5333 281.897 35.12C281.123 33.68 280.737 31.8533 280.737 29.64V17.48H286.977V28.72C286.977 30.5067 287.35 31.8267 288.097 32.68C288.87 33.5067 289.95 33.92 291.337 33.92C292.297 33.92 293.15 33.72 293.897 33.32C294.643 32.8933 295.23 32.2533 295.657 31.4C296.083 30.52 296.297 29.4267 296.297 28.12V17.48H302.537V39H296.617V33.08L297.697 34.8C296.977 36.2933 295.91 37.4267 294.497 38.2C293.11 38.9467 291.59 39.32 289.937 39.32ZM310.318 39V17.48H316.278V23.56L315.438 21.8C316.078 20.28 317.104 19.1333 318.518 18.36C319.931 17.56 321.651 17.16 323.678 17.16V22.92C323.411 22.8933 323.171 22.88 322.958 22.88C322.744 22.8533 322.518 22.84 322.278 22.84C320.571 22.84 319.184 23.3333 318.118 24.32C317.078 25.28 316.558 26.7867 316.558 28.84V39H310.318ZM336.784 39.32C334.944 39.32 333.171 39.1067 331.464 38.68C329.784 38.2267 328.451 37.6667 327.464 37L329.544 32.52C330.531 33.1333 331.691 33.64 333.024 34.04C334.384 34.4133 335.717 34.6 337.024 34.6C338.464 34.6 339.477 34.4267 340.064 34.08C340.677 33.7333 340.984 33.2533 340.984 32.64C340.984 32.1333 340.744 31.76 340.264 31.52C339.811 31.2533 339.197 31.0533 338.424 30.92C337.651 30.7867 336.797 30.6533 335.864 30.52C334.957 30.3867 334.037 30.2133 333.104 30C332.171 29.76 331.317 29.4133 330.544 28.96C329.771 28.5067 329.144 27.8933 328.664 27.12C328.211 26.3467 327.984 25.3467 327.984 24.12C327.984 22.76 328.371 21.56 329.144 20.52C329.944 19.48 331.091 18.6667 332.584 18.08C334.077 17.4667 335.864 17.16 337.944 17.16C339.411 17.16 340.904 17.32 342.424 17.64C343.944 17.96 345.211 18.4267 346.224 19.04L344.144 23.48C343.104 22.8667 342.051 22.4533 340.984 22.24C339.944 22 338.931 21.88 337.944 21.88C336.557 21.88 335.544 22.0667 334.904 22.44C334.264 22.8133 333.944 23.2933 333.944 23.88C333.944 24.4133 334.171 24.8133 334.624 25.08C335.104 25.3467 335.731 25.56 336.504 25.72C337.277 25.88 338.117 26.0267 339.024 26.16C339.957 26.2667 340.891 26.44 341.824 26.68C342.757 26.92 343.597 27.2667 344.344 27.72C345.117 28.1467 345.744 28.7467 346.224 29.52C346.704 30.2667 346.944 31.2533 346.944 32.48C346.944 33.8133 346.544 35 345.744 36.04C344.944 37.0533 343.784 37.8533 342.264 38.44C340.771 39.0267 338.944 39.32 336.784 39.32ZM363.474 39.32C361.021 39.32 358.861 38.84 356.994 37.88C355.154 36.92 353.727 35.6133 352.714 33.96C351.701 32.28 351.194 30.3733 351.194 28.24C351.194 26.08 351.687 24.1733 352.674 22.52C353.687 20.84 355.061 19.5333 356.794 18.6C358.527 17.64 360.487 17.16 362.674 17.16C364.781 17.16 366.674 17.6133 368.354 18.52C370.061 19.4 371.407 20.68 372.394 22.36C373.381 24.0133 373.874 26 373.874 28.32C373.874 28.56 373.861 28.84 373.834 29.16C373.807 29.4533 373.781 29.7333 373.754 30H356.274V26.36H370.474L368.074 27.44C368.074 26.32 367.847 25.3467 367.394 24.52C366.941 23.6933 366.314 23.0533 365.514 22.6C364.714 22.12 363.781 21.88 362.714 21.88C361.647 21.88 360.701 22.12 359.874 22.6C359.074 23.0533 358.447 23.7067 357.994 24.56C357.541 25.3867 357.314 26.3733 357.314 27.52V28.48C357.314 29.6533 357.567 30.6933 358.074 31.6C358.607 32.48 359.341 33.16 360.274 33.64C361.234 34.0933 362.354 34.32 363.634 34.32C364.781 34.32 365.781 34.1467 366.634 33.8C367.514 33.4533 368.314 32.9333 369.034 32.24L372.354 35.84C371.367 36.96 370.127 37.8267 368.634 38.44C367.141 39.0267 365.421 39.32 363.474 39.32Z" fill="#FDFDFD"/>
<path d="M2.842 57.78C3.234 57.822 3.654 57.85 4.102 57.85C4.914 57.85 8.176 57.85 8.96 57.85C9.352 57.85 9.856 57.822 10.262 57.78V58.942C9.842 58.914 9.352 58.886 8.96 58.886C8.176 58.886 4.914 58.886 4.13 58.886C3.654 58.886 3.206 58.914 2.842 58.942V57.78ZM1.176 61.294C1.554 61.336 1.96 61.364 2.394 61.364C3.206 61.364 10.808 61.364 11.55 61.364C11.844 61.364 12.306 61.336 12.656 61.294V62.456C12.348 62.428 11.9 62.414 11.55 62.414C10.808 62.414 3.206 62.414 2.394 62.414C1.974 62.414 1.554 62.428 1.176 62.456V61.294ZM7.77 61.854C7.77 63.618 7.546 65.074 6.93 66.25C6.412 67.188 5.362 68.196 4.172 68.798L3.136 68.042C4.214 67.58 5.222 66.782 5.782 65.886C6.482 64.78 6.58 63.408 6.594 61.868L7.77 61.854ZM10.99 56.632C11.34 57.136 11.844 57.99 12.124 58.55L11.368 58.886C11.102 58.326 10.626 57.486 10.248 56.954L10.99 56.632ZM12.516 56.072C12.894 56.59 13.426 57.458 13.692 57.976L12.95 58.312C12.642 57.71 12.18 56.912 11.788 56.394L12.516 56.072ZM25.844 57.332C26.11 57.836 26.474 58.704 26.67 59.264L25.97 59.502C25.774 58.914 25.452 58.074 25.172 57.542L25.844 57.332ZM27.244 56.898C27.51 57.416 27.874 58.27 28.084 58.83L27.384 59.068C27.16 58.438 26.852 57.64 26.558 57.108L27.244 56.898ZM24.514 61.826C24.514 65.55 23.716 67.468 20.524 68.896L19.572 68.014C22.12 67.034 23.394 65.83 23.394 61.91V58.508C23.394 57.962 23.352 57.5 23.324 57.36H24.584C24.57 57.5 24.514 57.962 24.514 58.508V61.826ZM19.474 57.458C19.46 57.584 19.404 57.976 19.404 58.466V63.604C19.404 64.108 19.446 64.724 19.46 64.864H18.228C18.242 64.724 18.284 64.136 18.284 63.604V58.466C18.284 58.172 18.27 57.766 18.228 57.458H19.474ZM15.372 60.174C15.498 60.188 16.184 60.258 16.786 60.258H26.054C26.67 60.258 27.146 60.216 27.342 60.188V61.378C27.188 61.35 26.67 61.336 26.054 61.336H16.786C16.17 61.336 15.54 61.364 15.372 61.378V60.174ZM30.604 62.946C33.026 62.302 35.154 61.308 36.708 60.342C38.178 59.418 39.578 58.214 40.544 57.038L41.482 57.92C40.278 59.166 38.808 60.342 37.17 61.364C35.63 62.316 33.404 63.338 31.15 64.038L30.604 62.946ZM36.484 60.916L37.688 60.552V66.95C37.688 67.468 37.716 68.168 37.786 68.434H36.4C36.442 68.168 36.484 67.468 36.484 66.95V60.916ZM50.6166 58.564C50.6166 58.13 50.5606 57.458 50.4766 57.164H51.8766C51.8346 57.458 51.7786 58.158 51.7786 58.564C51.7786 59.362 51.7786 60.664 51.7786 61.518C51.7786 64.612 50.7566 66.894 47.9006 68.532L46.8086 67.734C49.4686 66.474 50.6166 64.402 50.6166 61.518C50.6166 60.678 50.6166 59.362 50.6166 58.564ZM45.1846 60.37C45.4646 60.412 45.9826 60.44 46.4866 60.44C47.1726 60.44 54.8306 60.44 55.5026 60.44C55.9786 60.44 56.5106 60.412 56.7206 60.384V61.574C56.5106 61.56 55.9226 61.546 55.4886 61.546C54.8306 61.546 47.1726 61.546 46.5146 61.546C45.9826 61.546 45.4786 61.56 45.1846 61.588V60.37ZM59.9406 61.938C60.3746 61.98 61.1026 62.022 61.9006 62.022C62.9226 62.022 68.5366 62.022 69.5726 62.022C70.2726 62.022 70.7626 61.966 71.0846 61.938V63.31C70.7906 63.296 70.2026 63.254 69.5866 63.254C68.5226 63.254 62.9366 63.254 61.9006 63.254C61.1306 63.254 60.3886 63.282 59.9406 63.31V61.938ZM75.6206 58.41C76.0966 58.452 76.6986 58.494 77.1606 58.494H84.0486C84.3986 58.494 84.8046 58.48 85.0846 58.466C85.0706 58.774 85.0566 59.222 85.0566 59.544V66.782C85.0566 67.286 85.0986 67.916 85.1126 68.126H83.8526C83.8526 67.916 83.8806 67.398 83.8806 66.894V59.6H77.1606C76.6426 59.6 75.9566 59.628 75.6206 59.656V58.41ZM75.4526 66.138C75.8026 66.166 76.4186 66.208 76.9926 66.208H84.5106V67.356H77.0346C76.4606 67.356 75.8306 67.37 75.4526 67.412V66.138ZM89.3406 61.938C89.7746 61.98 90.5026 62.022 91.3006 62.022C92.3226 62.022 97.9366 62.022 98.9726 62.022C99.6726 62.022 100.163 61.966 100.485 61.938V63.31C100.191 63.296 99.6026 63.254 98.9866 63.254C97.9226 63.254 92.3366 63.254 91.3006 63.254C90.5306 63.254 89.7886 63.282 89.3406 63.31V61.938ZM113.115 58.648C113.031 58.76 112.849 59.068 112.779 59.25C112.219 60.636 111.155 62.596 109.993 63.884C108.425 65.634 106.423 67.3 104.211 68.308L103.315 67.37C105.583 66.502 107.641 64.822 109.083 63.226C110.035 62.148 111.057 60.482 111.421 59.32C110.917 59.32 106.437 59.32 105.961 59.32C105.457 59.32 104.701 59.376 104.547 59.39V58.13C104.729 58.158 105.527 58.214 105.961 58.214C106.507 58.214 110.833 58.214 111.365 58.214C111.813 58.214 112.191 58.172 112.415 58.102L113.115 58.648ZM110.175 63.156C111.687 64.416 113.549 66.376 114.501 67.538L113.535 68.392C112.527 67.062 110.889 65.27 109.377 63.94L110.175 63.156Z" fill="#E8E7E6"/>
</svg>
