<svg width="223" height="62" viewBox="0 0 223 62" fill="none" xmlns="http://www.w3.org/2000/svg">
<path d="M47.412 47.478H48.546V53.008H47.412V47.478ZM42.68 48.486L43.632 48.094C44.416 49.074 45.172 50.404 45.494 51.286L44.5 51.734C44.192 50.824 43.422 49.466 42.68 48.486ZM52.214 47.982L53.334 48.36C52.746 49.55 51.948 50.922 51.318 51.832L50.408 51.468C51.024 50.544 51.794 49.046 52.214 47.982ZM42.876 52.434H53.152V60.372H52.046V53.484H42.876V52.434ZM43.352 55.514H52.466V56.536H43.352V55.514ZM42.61 58.72H52.606V59.756H42.61V58.72ZM66.886 49.886C66.802 49.998 66.62 50.306 66.55 50.488C65.99 51.874 64.926 53.834 63.764 55.122C62.196 56.872 60.194 58.538 57.982 59.546L57.086 58.608C59.354 57.74 61.412 56.06 62.854 54.464C63.806 53.386 64.828 51.72 65.192 50.558C64.688 50.558 60.208 50.558 59.732 50.558C59.228 50.558 58.472 50.614 58.318 50.628V49.368C58.5 49.396 59.298 49.452 59.732 49.452C60.278 49.452 64.604 49.452 65.136 49.452C65.584 49.452 65.962 49.41 66.186 49.34L66.886 49.886ZM63.946 54.394C65.458 55.654 67.32 57.614 68.272 58.776L67.306 59.63C66.298 58.3 64.66 56.508 63.148 55.178L63.946 54.394ZM82.594 50.488C82.482 50.684 82.342 51.006 82.272 51.23C81.894 52.644 81.04 54.534 79.794 56.06C78.52 57.614 76.84 58.888 74.222 59.868L73.2 58.944C75.776 58.188 77.512 56.928 78.8 55.43C79.878 54.156 80.746 52.336 81.026 51.062H75.846L76.294 50.054C76.854 50.054 80.312 50.054 80.746 50.054C81.124 50.054 81.446 50.012 81.67 49.928L82.594 50.488ZM77.904 48.374C77.68 48.738 77.428 49.214 77.288 49.466C76.462 51.02 75.006 53.022 72.752 54.506L71.772 53.792C74.194 52.35 75.566 50.306 76.182 49.06C76.322 48.808 76.532 48.304 76.616 47.94L77.904 48.374ZM86.514 53.176C86.948 53.218 87.676 53.26 88.474 53.26C89.496 53.26 95.11 53.26 96.146 53.26C96.846 53.26 97.336 53.204 97.658 53.176V54.548C97.364 54.534 96.776 54.492 96.16 54.492C95.096 54.492 89.51 54.492 88.474 54.492C87.704 54.492 86.962 54.52 86.514 54.548V53.176ZM107.122 58.944C107.178 58.734 107.22 58.44 107.22 58.16C107.22 57.516 107.22 50.656 107.22 49.774C107.22 49.242 107.15 48.85 107.15 48.738H108.438C108.424 48.85 108.368 49.256 108.368 49.788C108.368 50.656 108.368 57.432 108.368 57.852C109.67 57.264 111.392 55.99 112.456 54.408L113.128 55.374C111.91 57.012 109.978 58.44 108.354 59.252C108.116 59.364 107.976 59.49 107.864 59.56L107.122 58.944ZM100.71 58.888C101.9 58.048 102.726 56.802 103.146 55.444C103.566 54.156 103.566 51.37 103.566 49.802C103.566 49.396 103.538 49.088 103.468 48.794H104.756C104.742 48.948 104.686 49.382 104.686 49.788C104.686 51.342 104.644 54.352 104.266 55.752C103.846 57.25 102.95 58.608 101.774 59.588L100.71 58.888ZM122.382 49.69C122.2 51.146 121.92 52.784 121.486 54.282C120.632 57.152 119.512 58.636 118.224 58.636C116.964 58.636 115.718 57.208 115.718 54.884C115.718 51.846 118.42 49.2 121.85 49.2C125.126 49.2 127.212 51.51 127.212 54.352C127.212 57.278 125.28 59.238 121.948 59.672L121.304 58.636C121.752 58.594 122.172 58.538 122.508 58.468C124.3 58.062 126.064 56.718 126.064 54.296C126.064 52.056 124.51 50.208 121.822 50.208C118.742 50.208 116.824 52.742 116.824 54.8C116.824 56.564 117.622 57.348 118.252 57.348C118.91 57.348 119.666 56.396 120.38 54.03C120.786 52.7 121.08 51.118 121.22 49.662L122.382 49.69ZM135.346 49.004H141.968V49.97H135.346V49.004ZM134.52 51.748H142.612V52.728H134.52V51.748ZM134.758 54.408H142.528V55.388H134.758V54.408ZM138.104 47.478H139.14V52.266H138.104V47.478ZM139.84 52.588H140.89V59.07C140.89 59.7 140.75 60.008 140.302 60.176C139.854 60.344 139.112 60.358 138.034 60.358C137.992 60.064 137.852 59.616 137.698 59.308C138.538 59.336 139.308 59.336 139.56 59.322C139.784 59.308 139.84 59.266 139.84 59.056V52.588ZM135.486 56.27L136.284 55.794C136.97 56.452 137.74 57.376 138.09 58.034L137.236 58.58C136.928 57.922 136.172 56.956 135.486 56.27ZM129.69 55.094C131.006 54.758 133.008 54.17 134.912 53.596L135.052 54.506C133.274 55.08 131.384 55.668 129.97 56.116L129.69 55.094ZM132.308 47.492H133.288V60.358H132.308V47.492ZM130.572 48.234L131.482 48.388C131.272 50.25 130.922 52.14 130.39 53.386C130.222 53.26 129.816 53.022 129.592 52.924C130.124 51.734 130.404 49.956 130.572 48.234ZM130.656 50.32H134.73V51.328H130.488L130.656 50.32ZM144.628 54.198H157.158V55.136H144.628V54.198ZM147.68 50.11H155.352V50.964H147.68V50.11ZM147.68 52.14H155.352V52.994H147.68V52.14ZM145.3 59.294C146.91 59.07 149.458 58.636 151.852 58.244L151.894 59.168C149.654 59.574 147.246 59.98 145.566 60.274L145.3 59.294ZM150.956 54.45C151.936 57.082 154.148 58.846 157.382 59.476C157.158 59.686 156.864 60.106 156.724 60.4C153.336 59.616 151.138 57.698 150.004 54.702L150.956 54.45ZM155.688 55.262L156.528 55.836C155.478 56.62 154.078 57.432 152.986 57.95L152.272 57.39C153.336 56.858 154.82 55.948 155.688 55.262ZM147.106 48.038H155.8V48.934H148.17V54.59H147.106V48.038ZM147.092 54.492H148.17V59.308L147.092 59.434V54.492Z" fill="#5D5D5D"/>
<path d="M50.32 15.5365H63.76V20.7365H50.32V15.5365ZM50.8 30.9365H44.32V2.93652H65.48V8.13652H50.8V30.9365ZM79.5991 31.2565C77.1457 31.2565 74.9857 30.7765 73.1191 29.8165C71.2791 28.8565 69.8524 27.5499 68.8391 25.8965C67.8257 24.2165 67.3191 22.3099 67.3191 20.1765C67.3191 18.0165 67.8124 16.1099 68.7991 14.4565C69.8124 12.7765 71.1857 11.4699 72.9191 10.5365C74.6524 9.57652 76.6124 9.09652 78.7991 9.09652C80.9057 9.09652 82.7991 9.54986 84.4791 10.4565C86.1857 11.3365 87.5324 12.6165 88.5191 14.2965C89.5057 15.9499 89.9991 17.9365 89.9991 20.2565C89.9991 20.4965 89.9857 20.7765 89.9591 21.0965C89.9324 21.3899 89.9057 21.6699 89.8791 21.9365H72.3991V18.2965H86.5991L84.1991 19.3765C84.1991 18.2565 83.9724 17.2832 83.5191 16.4565C83.0657 15.6299 82.4391 14.9899 81.6391 14.5365C80.8391 14.0565 79.9057 13.8165 78.8391 13.8165C77.7724 13.8165 76.8257 14.0565 75.9991 14.5365C75.1991 14.9899 74.5724 15.6432 74.1191 16.4965C73.6657 17.3232 73.4391 18.3099 73.4391 19.4565V20.4165C73.4391 21.5899 73.6924 22.6299 74.1991 23.5365C74.7324 24.4165 75.4657 25.0965 76.3991 25.5765C77.3591 26.0299 78.4791 26.2565 79.7591 26.2565C80.9057 26.2565 81.9057 26.0832 82.7591 25.7365C83.6391 25.3899 84.4391 24.8699 85.1591 24.1765L88.4791 27.7765C87.4924 28.8965 86.2524 29.7632 84.7591 30.3765C83.2657 30.9632 81.5457 31.2565 79.5991 31.2565ZM106.768 30.9365V26.7365L106.368 25.8165V18.2965C106.368 16.9632 105.954 15.9232 105.128 15.1765C104.328 14.4299 103.088 14.0565 101.408 14.0565C100.261 14.0565 99.1275 14.2432 98.0075 14.6165C96.9142 14.9632 95.9808 15.4432 95.2075 16.0565L92.9675 11.6965C94.1408 10.8699 95.5542 10.2299 97.2075 9.77652C98.8608 9.32319 100.541 9.09652 102.248 9.09652C105.528 9.09652 108.074 9.86986 109.888 11.4165C111.701 12.9632 112.608 15.3765 112.608 18.6565V30.9365H106.768ZM100.208 31.2565C98.5275 31.2565 97.0875 30.9765 95.8875 30.4165C94.6875 29.8299 93.7675 29.0432 93.1275 28.0565C92.4875 27.0699 92.1675 25.9632 92.1675 24.7365C92.1675 23.4565 92.4742 22.3365 93.0875 21.3765C93.7275 20.4165 94.7275 19.6699 96.0875 19.1365C97.4475 18.5765 99.2208 18.2965 101.408 18.2965H107.128V21.9365H102.088C100.621 21.9365 99.6075 22.1765 99.0475 22.6565C98.5142 23.1365 98.2475 23.7365 98.2475 24.4565C98.2475 25.2565 98.5542 25.8965 99.1675 26.3765C99.8075 26.8299 100.674 27.0565 101.768 27.0565C102.808 27.0565 103.741 26.8165 104.568 26.3365C105.394 25.8299 105.994 25.0965 106.368 24.1365L107.328 27.0165C106.874 28.4032 106.048 29.4565 104.848 30.1765C103.648 30.8965 102.101 31.2565 100.208 31.2565ZM127.055 31.2565C124.522 31.2565 122.548 30.6165 121.135 29.3365C119.722 28.0299 119.015 26.0965 119.015 23.5365V4.65652H125.255V23.4565C125.255 24.3632 125.495 25.0699 125.975 25.5765C126.455 26.0565 127.108 26.2965 127.935 26.2965C128.922 26.2965 129.762 26.0299 130.455 25.4965L132.135 29.8965C131.495 30.3499 130.722 30.6965 129.815 30.9365C128.935 31.1499 128.015 31.2565 127.055 31.2565ZM115.695 14.6965V9.89652H130.615V14.6965H115.695ZM144.718 31.2565C142.931 31.2565 141.331 30.9099 139.918 30.2165C138.531 29.5232 137.451 28.4699 136.678 27.0565C135.904 25.6165 135.518 23.7899 135.518 21.5765V9.41652H141.758V20.6565C141.758 22.4432 142.131 23.7632 142.878 24.6165C143.651 25.4432 144.731 25.8565 146.118 25.8565C147.078 25.8565 147.931 25.6565 148.678 25.2565C149.424 24.8299 150.011 24.1899 150.438 23.3365C150.864 22.4565 151.078 21.3632 151.078 20.0565V9.41652H157.318V30.9365H151.398V25.0165L152.478 26.7365C151.758 28.2299 150.691 29.3632 149.278 30.1365C147.891 30.8832 146.371 31.2565 144.718 31.2565ZM163.099 30.9365V9.41652H169.059V15.4965L168.219 13.7365C168.859 12.2165 169.885 11.0699 171.299 10.2965C172.712 9.49652 174.432 9.09652 176.459 9.09652V14.8565C176.192 14.8299 175.952 14.8165 175.739 14.8165C175.525 14.7899 175.299 14.7765 175.059 14.7765C173.352 14.7765 171.965 15.2699 170.899 16.2565C169.859 17.2165 169.339 18.7232 169.339 20.7765V30.9365H163.099ZM190.693 31.2565C188.239 31.2565 186.079 30.7765 184.213 29.8165C182.373 28.8565 180.946 27.5499 179.933 25.8965C178.919 24.2165 178.413 22.3099 178.413 20.1765C178.413 18.0165 178.906 16.1099 179.893 14.4565C180.906 12.7765 182.279 11.4699 184.013 10.5365C185.746 9.57652 187.706 9.09652 189.893 9.09652C191.999 9.09652 193.893 9.54986 195.573 10.4565C197.279 11.3365 198.626 12.6165 199.613 14.2965C200.599 15.9499 201.093 17.9365 201.093 20.2565C201.093 20.4965 201.079 20.7765 201.053 21.0965C201.026 21.3899 200.999 21.6699 200.973 21.9365H183.493V18.2965H197.693L195.293 19.3765C195.293 18.2565 195.066 17.2832 194.613 16.4565C194.159 15.6299 193.533 14.9899 192.733 14.5365C191.933 14.0565 190.999 13.8165 189.933 13.8165C188.866 13.8165 187.919 14.0565 187.093 14.5365C186.293 14.9899 185.666 15.6432 185.213 16.4965C184.759 17.3232 184.533 18.3099 184.533 19.4565V20.4165C184.533 21.5899 184.786 22.6299 185.293 23.5365C185.826 24.4165 186.559 25.0965 187.493 25.5765C188.453 26.0299 189.573 26.2565 190.853 26.2565C191.999 26.2565 192.999 26.0832 193.853 25.7365C194.733 25.3899 195.533 24.8699 196.253 24.1765L199.573 27.7765C198.586 28.8965 197.346 29.7632 195.853 30.3765C194.359 30.9632 192.639 31.2565 190.693 31.2565ZM212.487 31.2565C210.647 31.2565 208.874 31.0432 207.167 30.6165C205.487 30.1632 204.154 29.6032 203.167 28.9365L205.247 24.4565C206.234 25.0699 207.394 25.5765 208.727 25.9765C210.087 26.3499 211.421 26.5365 212.727 26.5365C214.167 26.5365 215.181 26.3632 215.767 26.0165C216.381 25.6699 216.687 25.1899 216.687 24.5765C216.687 24.0699 216.447 23.6965 215.967 23.4565C215.514 23.1899 214.901 22.9899 214.127 22.8565C213.354 22.7232 212.501 22.5899 211.567 22.4565C210.661 22.3232 209.741 22.1499 208.807 21.9365C207.874 21.6965 207.021 21.3499 206.247 20.8965C205.474 20.4432 204.847 19.8299 204.367 19.0565C203.914 18.2832 203.687 17.2832 203.687 16.0565C203.687 14.6965 204.074 13.4965 204.847 12.4565C205.647 11.4165 206.794 10.6032 208.287 10.0165C209.781 9.40319 211.567 9.09652 213.647 9.09652C215.114 9.09652 216.607 9.25652 218.127 9.57652C219.647 9.89652 220.914 10.3632 221.927 10.9765L219.847 15.4165C218.807 14.8032 217.754 14.3899 216.687 14.1765C215.647 13.9365 214.634 13.8165 213.647 13.8165C212.261 13.8165 211.247 14.0032 210.607 14.3765C209.967 14.7499 209.647 15.2299 209.647 15.8165C209.647 16.3499 209.874 16.7499 210.327 17.0165C210.807 17.2832 211.434 17.4965 212.207 17.6565C212.981 17.8165 213.821 17.9632 214.727 18.0965C215.661 18.2032 216.594 18.3765 217.527 18.6165C218.461 18.8565 219.301 19.2032 220.047 19.6565C220.821 20.0832 221.447 20.6832 221.927 21.4565C222.407 22.2032 222.647 23.1899 222.647 24.4165C222.647 25.7499 222.247 26.9365 221.447 27.9765C220.647 28.9899 219.487 29.7899 217.967 30.3765C216.474 30.9632 214.647 31.2565 212.487 31.2565Z" fill="#181818"/>
<rect y="9.84131" width="16" height="15.746" fill="#EC6800"/>
<rect x="20" width="8" height="7.87302" fill="#EC6800"/>
</svg>
