<svg width="187" height="63" viewBox="0 0 187 63" fill="none" xmlns="http://www.w3.org/2000/svg">
<path d="M43.394 51.41C43.87 51.452 44.472 51.494 44.934 51.494H51.822C52.172 51.494 52.578 51.48 52.858 51.466C52.844 51.774 52.83 52.222 52.83 52.544V59.782C52.83 60.286 52.872 60.916 52.886 61.126H51.626C51.626 60.916 51.654 60.398 51.654 59.894V52.6H44.934C44.416 52.6 43.73 52.628 43.394 52.656V51.41ZM43.226 59.138C43.576 59.166 44.192 59.208 44.766 59.208H52.284V60.356H44.808C44.234 60.356 43.604 60.37 43.226 60.412V59.138ZM57.114 54.938C57.548 54.98 58.276 55.022 59.074 55.022C60.096 55.022 65.71 55.022 66.746 55.022C67.446 55.022 67.936 54.966 68.258 54.938V56.31C67.964 56.296 67.376 56.254 66.76 56.254C65.696 56.254 60.11 56.254 59.074 56.254C58.304 56.254 57.562 56.282 57.114 56.31V54.938ZM80.8887 51.648C80.8047 51.76 80.6227 52.068 80.5527 52.25C79.9927 53.636 78.9287 55.596 77.7667 56.884C76.1987 58.634 74.1967 60.3 71.9847 61.308L71.0887 60.37C73.3567 59.502 75.4147 57.822 76.8567 56.226C77.8087 55.148 78.8307 53.482 79.1947 52.32C78.6907 52.32 74.2107 52.32 73.7347 52.32C73.2307 52.32 72.4747 52.376 72.3207 52.39V51.13C72.5027 51.158 73.3007 51.214 73.7347 51.214C74.2807 51.214 78.6067 51.214 79.1387 51.214C79.5867 51.214 79.9647 51.172 80.1887 51.102L80.8887 51.648ZM77.9487 56.156C79.4607 57.416 81.3227 59.376 82.2747 60.538L81.3087 61.392C80.3007 60.062 78.6627 58.27 77.1507 56.94L77.9487 56.156ZM85.0187 54.966H97.8287V56.114H85.0187V54.966ZM102.799 57.01V57.71H109.351V57.01H102.799ZM102.799 58.326V59.04H109.351V58.326H102.799ZM102.799 55.722V56.394H109.351V55.722H102.799ZM101.805 55.064H110.387V59.684H101.805V55.064ZM106.957 59.32H107.993V60.762C107.993 61.07 108.105 61.112 108.735 61.112C109.029 61.112 110.513 61.112 110.919 61.112C111.423 61.112 111.521 60.958 111.577 59.81C111.773 59.964 112.193 60.104 112.473 60.16C112.361 61.63 112.053 61.98 111.017 61.98C110.723 61.98 108.917 61.98 108.637 61.98C107.307 61.98 106.957 61.728 106.957 60.776V59.32ZM103.947 59.348H104.983C104.577 61.014 103.415 61.77 100.195 62.148C100.125 61.91 99.8867 61.532 99.7187 61.336C102.631 61.07 103.583 60.552 103.947 59.348ZM107.391 53.244H112.039V54.084H107.391V53.244ZM107.545 50.668H112.417V51.508H107.545V50.668ZM107.769 49.24L108.721 49.45C108.287 50.85 107.573 52.25 106.789 53.146C106.621 52.992 106.215 52.712 105.977 52.586C106.747 51.76 107.391 50.5 107.769 49.24ZM102.785 50.094H103.653V51.396H102.785V50.094ZM102.785 52.726H103.653V54.07H102.785V52.726ZM100.895 51.102H105.725V53.132H100.895V52.474H104.787V51.746H100.895V51.102ZM106.033 49.758V50.416H101.329V53.902H106.215V54.574H100.363V49.758H106.033Z" fill="#5D5D5D"/>
<path d="M57.72 32.48C55.56 32.48 53.5467 32.1333 51.68 31.44C49.84 30.72 48.24 29.7067 46.88 28.4C45.52 27.0933 44.4533 25.56 43.68 23.8C42.9333 22.04 42.56 20.1067 42.56 18C42.56 15.8933 42.9333 13.96 43.68 12.2C44.4533 10.44 45.52 8.90667 46.88 7.6C48.2667 6.29333 49.88 5.29333 51.72 4.6C53.56 3.88 55.5733 3.52 57.76 3.52C60.1867 3.52 62.3733 3.94667 64.32 4.8C66.2933 5.62667 67.9467 6.85333 69.28 8.48L65.12 12.32C64.16 11.2267 63.0933 10.4133 61.92 9.88C60.7467 9.32 59.4667 9.04 58.08 9.04C56.7733 9.04 55.5733 9.25333 54.48 9.68C53.3867 10.1067 52.44 10.72 51.64 11.52C50.84 12.32 50.2133 13.2667 49.76 14.36C49.3333 15.4533 49.12 16.6667 49.12 18C49.12 19.3333 49.3333 20.5467 49.76 21.64C50.2133 22.7333 50.84 23.68 51.64 24.48C52.44 25.28 53.3867 25.8933 54.48 26.32C55.5733 26.7467 56.7733 26.96 58.08 26.96C59.4667 26.96 60.7467 26.6933 61.92 26.16C63.0933 25.6 64.16 24.76 65.12 23.64L69.28 27.48C67.9467 29.1067 66.2933 30.3467 64.32 31.2C62.3733 32.0533 60.1733 32.48 57.72 32.48ZM82.7138 32.32C80.4204 32.32 78.3804 31.84 76.5938 30.88C74.8338 29.92 73.4338 28.6133 72.3938 26.96C71.3804 25.28 70.8738 23.3733 70.8738 21.24C70.8738 19.08 71.3804 17.1733 72.3938 15.52C73.4338 13.84 74.8338 12.5333 76.5938 11.6C78.3804 10.64 80.4204 10.16 82.7138 10.16C84.9804 10.16 87.0071 10.64 88.7938 11.6C90.5804 12.5333 91.9804 13.8267 92.9938 15.48C94.0071 17.1333 94.5138 19.0533 94.5138 21.24C94.5138 23.3733 94.0071 25.28 92.9938 26.96C91.9804 28.6133 90.5804 29.92 88.7938 30.88C87.0071 31.84 84.9804 32.32 82.7138 32.32ZM82.7138 27.2C83.7538 27.2 84.6871 26.96 85.5138 26.48C86.3404 26 86.9938 25.32 87.4738 24.44C87.9538 23.5333 88.1938 22.4667 88.1938 21.24C88.1938 19.9867 87.9538 18.92 87.4738 18.04C86.9938 17.16 86.3404 16.48 85.5138 16C84.6871 15.52 83.7538 15.28 82.7138 15.28C81.6738 15.28 80.7404 15.52 79.9138 16C79.0871 16.48 78.4204 17.16 77.9138 18.04C77.4338 18.92 77.1938 19.9867 77.1938 21.24C77.1938 22.4667 77.4338 23.5333 77.9138 24.44C78.4204 25.32 79.0871 26 79.9138 26.48C80.7404 26.96 81.6738 27.2 82.7138 27.2ZM107.765 32.32C105.978 32.32 104.378 31.9733 102.965 31.28C101.578 30.5867 100.498 29.5333 99.7247 28.12C98.9514 26.68 98.5647 24.8533 98.5647 22.64V10.48H104.805V21.72C104.805 23.5067 105.178 24.8267 105.925 25.68C106.698 26.5067 107.778 26.92 109.165 26.92C110.125 26.92 110.978 26.72 111.725 26.32C112.471 25.8933 113.058 25.2533 113.485 24.4C113.911 23.52 114.125 22.4267 114.125 21.12V10.48H120.365V32H114.445V26.08L115.525 27.8C114.805 29.2933 113.738 30.4267 112.325 31.2C110.938 31.9467 109.418 32.32 107.765 32.32ZM126.146 32V10.48H132.106V16.56L131.266 14.8C131.906 13.28 132.932 12.1333 134.346 11.36C135.759 10.56 137.479 10.16 139.506 10.16V15.92C139.239 15.8933 138.999 15.88 138.786 15.88C138.572 15.8533 138.346 15.84 138.106 15.84C136.399 15.84 135.012 16.3333 133.946 17.32C132.906 18.28 132.386 19.7867 132.386 21.84V32H126.146ZM150.612 32.32C148.772 32.32 146.999 32.1067 145.292 31.68C143.612 31.2267 142.279 30.6667 141.292 30L143.372 25.52C144.359 26.1333 145.519 26.64 146.852 27.04C148.212 27.4133 149.546 27.6 150.852 27.6C152.292 27.6 153.306 27.4267 153.892 27.08C154.506 26.7333 154.812 26.2533 154.812 25.64C154.812 25.1333 154.572 24.76 154.092 24.52C153.639 24.2533 153.026 24.0533 152.252 23.92C151.479 23.7867 150.626 23.6533 149.692 23.52C148.786 23.3867 147.866 23.2133 146.932 23C145.999 22.76 145.146 22.4133 144.372 21.96C143.599 21.5067 142.972 20.8933 142.492 20.12C142.039 19.3467 141.812 18.3467 141.812 17.12C141.812 15.76 142.199 14.56 142.972 13.52C143.772 12.48 144.919 11.6667 146.412 11.08C147.906 10.4667 149.692 10.16 151.772 10.16C153.239 10.16 154.732 10.32 156.252 10.64C157.772 10.96 159.039 11.4267 160.052 12.04L157.972 16.48C156.932 15.8667 155.879 15.4533 154.812 15.24C153.772 15 152.759 14.88 151.772 14.88C150.386 14.88 149.372 15.0667 148.732 15.44C148.092 15.8133 147.772 16.2933 147.772 16.88C147.772 17.4133 147.999 17.8133 148.452 18.08C148.932 18.3467 149.559 18.56 150.332 18.72C151.106 18.88 151.946 19.0267 152.852 19.16C153.786 19.2667 154.719 19.44 155.652 19.68C156.586 19.92 157.426 20.2667 158.172 20.72C158.946 21.1467 159.572 21.7467 160.052 22.52C160.532 23.2667 160.772 24.2533 160.772 25.48C160.772 26.8133 160.372 28 159.572 29.04C158.772 30.0533 157.612 30.8533 156.092 31.44C154.599 32.0267 152.772 32.32 150.612 32.32ZM175.302 32.32C172.849 32.32 170.689 31.84 168.822 30.88C166.982 29.92 165.556 28.6133 164.542 26.96C163.529 25.28 163.022 23.3733 163.022 21.24C163.022 19.08 163.516 17.1733 164.502 15.52C165.516 13.84 166.889 12.5333 168.622 11.6C170.356 10.64 172.316 10.16 174.502 10.16C176.609 10.16 178.502 10.6133 180.182 11.52C181.889 12.4 183.236 13.68 184.222 15.36C185.209 17.0133 185.702 19 185.702 21.32C185.702 21.56 185.689 21.84 185.662 22.16C185.636 22.4533 185.609 22.7333 185.582 23H168.102V19.36H182.302L179.902 20.44C179.902 19.32 179.676 18.3467 179.222 17.52C178.769 16.6933 178.142 16.0533 177.342 15.6C176.542 15.12 175.609 14.88 174.542 14.88C173.476 14.88 172.529 15.12 171.702 15.6C170.902 16.0533 170.276 16.7067 169.822 17.56C169.369 18.3867 169.142 19.3733 169.142 20.52V21.48C169.142 22.6533 169.396 23.6933 169.902 24.6C170.436 25.48 171.169 26.16 172.102 26.64C173.062 27.0933 174.182 27.32 175.462 27.32C176.609 27.32 177.609 27.1467 178.462 26.8C179.342 26.4533 180.142 25.9333 180.862 25.24L184.182 28.84C183.196 29.96 181.956 30.8267 180.462 31.44C178.969 32.0267 177.249 32.32 175.302 32.32Z" fill="#181818"/>
<rect y="10" width="16" height="16" fill="#EC6800"/>
<rect x="20" width="8" height="8" fill="#EC6800"/>
</svg>
